<?xml version="1.0" encoding="utf-8" standalone="no"?>
<!DOCTYPE svg PUBLIC "-//W3C//DTD SVG 1.1//EN"
  "http://www.w3.org/Graphics/SVG/1.1/DTD/svg11.dtd">
<svg xmlns:xlink="http://www.w3.org/1999/xlink" width="458.351602pt" height="349.685156pt" viewBox="0 0 458.351602 349.685156" xmlns="http://www.w3.org/2000/svg" version="1.1">
 <metadata>
  <rdf:RDF xmlns:dc="http://purl.org/dc/elements/1.1/" xmlns:cc="http://creativecommons.org/ns#" xmlns:rdf="http://www.w3.org/1999/02/22-rdf-syntax-ns#">
   <cc:Work>
    <dc:type rdf:resource="http://purl.org/dc/dcmitype/StillImage"/>
    <dc:date>2025-09-07T10:15:39.990128</dc:date>
    <dc:format>image/svg+xml</dc:format>
    <dc:creator>
     <cc:Agent>
      <dc:title>Matplotlib v3.10.0, https://matplotlib.org/</dc:title>
     </cc:Agent>
    </dc:creator>
   </cc:Work>
  </rdf:RDF>
 </metadata>
 <defs>
  <style type="text/css">*{stroke-linejoin: round; stroke-linecap: butt}</style>
 </defs>
 <g id="figure_1">
  <g id="patch_1">
   <path d="M 0 349.685156 
L 458.351602 349.685156 
L 458.351602 0 
L 0 0 
z
" style="fill: #ffffff"/>
  </g>
  <g id="axes_1">
   <g id="patch_2">
    <path d="M 48.322813 153.149496 
L 451.151602 153.149496 
L 451.151602 7.2 
L 48.322813 7.2 
z
" style="fill: #ffffff"/>
   </g>
   <g id="matplotlib.axis_1">
    <g id="xtick_1">
     <g id="line2d_1">
      <path d="M 66.633212 153.149496 
L 66.633212 7.2 
" clip-path="url(#p930782e892)" style="fill: none; stroke: #cccccc; stroke-width: 0.8; stroke-linecap: round"/>
     </g>
    </g>
    <g id="xtick_2">
     <g id="line2d_2">
      <path d="M 139.87481 153.149496 
L 139.87481 7.2 
" clip-path="url(#p930782e892)" style="fill: none; stroke: #cccccc; stroke-width: 0.8; stroke-linecap: round"/>
     </g>
    </g>
    <g id="xtick_3">
     <g id="line2d_3">
      <path d="M 213.116408 153.149496 
L 213.116408 7.2 
" clip-path="url(#p930782e892)" style="fill: none; stroke: #cccccc; stroke-width: 0.8; stroke-linecap: round"/>
     </g>
    </g>
    <g id="xtick_4">
     <g id="line2d_4">
      <path d="M 286.358006 153.149496 
L 286.358006 7.2 
" clip-path="url(#p930782e892)" style="fill: none; stroke: #cccccc; stroke-width: 0.8; stroke-linecap: round"/>
     </g>
    </g>
    <g id="xtick_5">
     <g id="line2d_5">
      <path d="M 359.599604 153.149496 
L 359.599604 7.2 
" clip-path="url(#p930782e892)" style="fill: none; stroke: #cccccc; stroke-width: 0.8; stroke-linecap: round"/>
     </g>
    </g>
    <g id="xtick_6">
     <g id="line2d_6">
      <path d="M 432.841202 153.149496 
L 432.841202 7.2 
" clip-path="url(#p930782e892)" style="fill: none; stroke: #cccccc; stroke-width: 0.8; stroke-linecap: round"/>
     </g>
    </g>
   </g>
   <g id="matplotlib.axis_2">
    <g id="ytick_1">
     <g id="line2d_7">
      <path d="M 48.322813 146.515428 
L 451.151602 146.515428 
" clip-path="url(#p930782e892)" style="fill: none; stroke: #cccccc; stroke-width: 0.8; stroke-linecap: round"/>
     </g>
     <g id="text_1">
      <!-- 0.0 -->
      <g style="fill: #262626" transform="translate(27.422813 150.094334) scale(0.1 -0.1)">
       <defs>
        <path id="ArialMT-30" d="M 266 2259 
Q 266 3072 433 3567 
Q 600 4063 929 4331 
Q 1259 4600 1759 4600 
Q 2128 4600 2406 4451 
Q 2684 4303 2865 4023 
Q 3047 3744 3150 3342 
Q 3253 2941 3253 2259 
Q 3253 1453 3087 958 
Q 2922 463 2592 192 
Q 2263 -78 1759 -78 
Q 1097 -78 719 397 
Q 266 969 266 2259 
z
M 844 2259 
Q 844 1131 1108 757 
Q 1372 384 1759 384 
Q 2147 384 2411 759 
Q 2675 1134 2675 2259 
Q 2675 3391 2411 3762 
Q 2147 4134 1753 4134 
Q 1366 4134 1134 3806 
Q 844 3388 844 2259 
z
" transform="scale(0.015625)"/>
        <path id="ArialMT-2e" d="M 581 0 
L 581 641 
L 1222 641 
L 1222 0 
L 581 0 
z
" transform="scale(0.015625)"/>
       </defs>
       <use xlink:href="#ArialMT-30"/>
       <use xlink:href="#ArialMT-2e" transform="translate(55.615234 0)"/>
       <use xlink:href="#ArialMT-30" transform="translate(83.398438 0)"/>
      </g>
     </g>
    </g>
    <g id="ytick_2">
     <g id="line2d_8">
      <path d="M 48.322813 119.979156 
L 451.151602 119.979156 
" clip-path="url(#p930782e892)" style="fill: none; stroke: #cccccc; stroke-width: 0.8; stroke-linecap: round"/>
     </g>
     <g id="text_2">
      <!-- 0.2 -->
      <g style="fill: #262626" transform="translate(27.422813 123.558062) scale(0.1 -0.1)">
       <defs>
        <path id="ArialMT-32" d="M 3222 541 
L 3222 0 
L 194 0 
Q 188 203 259 391 
Q 375 700 629 1000 
Q 884 1300 1366 1694 
Q 2113 2306 2375 2664 
Q 2638 3022 2638 3341 
Q 2638 3675 2398 3904 
Q 2159 4134 1775 4134 
Q 1369 4134 1125 3890 
Q 881 3647 878 3216 
L 300 3275 
Q 359 3922 746 4261 
Q 1134 4600 1788 4600 
Q 2447 4600 2831 4234 
Q 3216 3869 3216 3328 
Q 3216 3053 3103 2787 
Q 2991 2522 2730 2228 
Q 2469 1934 1863 1422 
Q 1356 997 1212 845 
Q 1069 694 975 541 
L 3222 541 
z
" transform="scale(0.015625)"/>
       </defs>
       <use xlink:href="#ArialMT-30"/>
       <use xlink:href="#ArialMT-2e" transform="translate(55.615234 0)"/>
       <use xlink:href="#ArialMT-32" transform="translate(83.398438 0)"/>
      </g>
     </g>
    </g>
    <g id="ytick_3">
     <g id="line2d_9">
      <path d="M 48.322813 93.442884 
L 451.151602 93.442884 
" clip-path="url(#p930782e892)" style="fill: none; stroke: #cccccc; stroke-width: 0.8; stroke-linecap: round"/>
     </g>
     <g id="text_3">
      <!-- 0.4 -->
      <g style="fill: #262626" transform="translate(27.422813 97.02179) scale(0.1 -0.1)">
       <defs>
        <path id="ArialMT-34" d="M 2069 0 
L 2069 1097 
L 81 1097 
L 81 1613 
L 2172 4581 
L 2631 4581 
L 2631 1613 
L 3250 1613 
L 3250 1097 
L 2631 1097 
L 2631 0 
L 2069 0 
z
M 2069 1613 
L 2069 3678 
L 634 1613 
L 2069 1613 
z
" transform="scale(0.015625)"/>
       </defs>
       <use xlink:href="#ArialMT-30"/>
       <use xlink:href="#ArialMT-2e" transform="translate(55.615234 0)"/>
       <use xlink:href="#ArialMT-34" transform="translate(83.398438 0)"/>
      </g>
     </g>
    </g>
    <g id="ytick_4">
     <g id="line2d_10">
      <path d="M 48.322813 66.906612 
L 451.151602 66.906612 
" clip-path="url(#p930782e892)" style="fill: none; stroke: #cccccc; stroke-width: 0.8; stroke-linecap: round"/>
     </g>
     <g id="text_4">
      <!-- 0.6 -->
      <g style="fill: #262626" transform="translate(27.422813 70.485518) scale(0.1 -0.1)">
       <defs>
        <path id="ArialMT-36" d="M 3184 3459 
L 2625 3416 
Q 2550 3747 2413 3897 
Q 2184 4138 1850 4138 
Q 1581 4138 1378 3988 
Q 1113 3794 959 3422 
Q 806 3050 800 2363 
Q 1003 2672 1297 2822 
Q 1591 2972 1913 2972 
Q 2475 2972 2870 2558 
Q 3266 2144 3266 1488 
Q 3266 1056 3080 686 
Q 2894 316 2569 119 
Q 2244 -78 1831 -78 
Q 1128 -78 684 439 
Q 241 956 241 2144 
Q 241 3472 731 4075 
Q 1159 4600 1884 4600 
Q 2425 4600 2770 4297 
Q 3116 3994 3184 3459 
z
M 888 1484 
Q 888 1194 1011 928 
Q 1134 663 1356 523 
Q 1578 384 1822 384 
Q 2178 384 2434 671 
Q 2691 959 2691 1453 
Q 2691 1928 2437 2201 
Q 2184 2475 1800 2475 
Q 1419 2475 1153 2201 
Q 888 1928 888 1484 
z
" transform="scale(0.015625)"/>
       </defs>
       <use xlink:href="#ArialMT-30"/>
       <use xlink:href="#ArialMT-2e" transform="translate(55.615234 0)"/>
       <use xlink:href="#ArialMT-36" transform="translate(83.398438 0)"/>
      </g>
     </g>
    </g>
    <g id="ytick_5">
     <g id="line2d_11">
      <path d="M 48.322813 40.37034 
L 451.151602 40.37034 
" clip-path="url(#p930782e892)" style="fill: none; stroke: #cccccc; stroke-width: 0.8; stroke-linecap: round"/>
     </g>
     <g id="text_5">
      <!-- 0.8 -->
      <g style="fill: #262626" transform="translate(27.422813 43.949246) scale(0.1 -0.1)">
       <defs>
        <path id="ArialMT-38" d="M 1131 2484 
Q 781 2613 612 2850 
Q 444 3088 444 3419 
Q 444 3919 803 4259 
Q 1163 4600 1759 4600 
Q 2359 4600 2725 4251 
Q 3091 3903 3091 3403 
Q 3091 3084 2923 2848 
Q 2756 2613 2416 2484 
Q 2838 2347 3058 2040 
Q 3278 1734 3278 1309 
Q 3278 722 2862 322 
Q 2447 -78 1769 -78 
Q 1091 -78 675 323 
Q 259 725 259 1325 
Q 259 1772 486 2073 
Q 713 2375 1131 2484 
z
M 1019 3438 
Q 1019 3113 1228 2906 
Q 1438 2700 1772 2700 
Q 2097 2700 2305 2904 
Q 2513 3109 2513 3406 
Q 2513 3716 2298 3927 
Q 2084 4138 1766 4138 
Q 1444 4138 1231 3931 
Q 1019 3725 1019 3438 
z
M 838 1322 
Q 838 1081 952 856 
Q 1066 631 1291 507 
Q 1516 384 1775 384 
Q 2178 384 2440 643 
Q 2703 903 2703 1303 
Q 2703 1709 2433 1975 
Q 2163 2241 1756 2241 
Q 1359 2241 1098 1978 
Q 838 1716 838 1322 
z
" transform="scale(0.015625)"/>
       </defs>
       <use xlink:href="#ArialMT-30"/>
       <use xlink:href="#ArialMT-2e" transform="translate(55.615234 0)"/>
       <use xlink:href="#ArialMT-38" transform="translate(83.398438 0)"/>
      </g>
     </g>
    </g>
    <g id="ytick_6">
     <g id="line2d_12">
      <path d="M 48.322813 13.834068 
L 451.151602 13.834068 
" clip-path="url(#p930782e892)" style="fill: none; stroke: #cccccc; stroke-width: 0.8; stroke-linecap: round"/>
     </g>
     <g id="text_6">
      <!-- 1.0 -->
      <g style="fill: #262626" transform="translate(27.422813 17.412974) scale(0.1 -0.1)">
       <defs>
        <path id="ArialMT-31" d="M 2384 0 
L 1822 0 
L 1822 3584 
Q 1619 3391 1289 3197 
Q 959 3003 697 2906 
L 697 3450 
Q 1169 3672 1522 3987 
Q 1875 4303 2022 4600 
L 2384 4600 
L 2384 0 
z
" transform="scale(0.015625)"/>
       </defs>
       <use xlink:href="#ArialMT-31"/>
       <use xlink:href="#ArialMT-2e" transform="translate(55.615234 0)"/>
       <use xlink:href="#ArialMT-30" transform="translate(83.398438 0)"/>
      </g>
     </g>
    </g>
    <g id="text_7">
     <!-- Learning Rate η(t) -->
     <g style="fill: #262626" transform="translate(21.107656 124.50131) rotate(-90) scale(0.11 -0.11)">
      <defs>
       <path id="ArialMT-4c" d="M 469 0 
L 469 4581 
L 1075 4581 
L 1075 541 
L 3331 541 
L 3331 0 
L 469 0 
z
" transform="scale(0.015625)"/>
       <path id="ArialMT-65" d="M 2694 1069 
L 3275 997 
Q 3138 488 2766 206 
Q 2394 -75 1816 -75 
Q 1088 -75 661 373 
Q 234 822 234 1631 
Q 234 2469 665 2931 
Q 1097 3394 1784 3394 
Q 2450 3394 2872 2941 
Q 3294 2488 3294 1666 
Q 3294 1616 3291 1516 
L 816 1516 
Q 847 969 1125 678 
Q 1403 388 1819 388 
Q 2128 388 2347 550 
Q 2566 713 2694 1069 
z
M 847 1978 
L 2700 1978 
Q 2663 2397 2488 2606 
Q 2219 2931 1791 2931 
Q 1403 2931 1139 2672 
Q 875 2413 847 1978 
z
" transform="scale(0.015625)"/>
       <path id="ArialMT-61" d="M 2588 409 
Q 2275 144 1986 34 
Q 1697 -75 1366 -75 
Q 819 -75 525 192 
Q 231 459 231 875 
Q 231 1119 342 1320 
Q 453 1522 633 1644 
Q 813 1766 1038 1828 
Q 1203 1872 1538 1913 
Q 2219 1994 2541 2106 
Q 2544 2222 2544 2253 
Q 2544 2597 2384 2738 
Q 2169 2928 1744 2928 
Q 1347 2928 1158 2789 
Q 969 2650 878 2297 
L 328 2372 
Q 403 2725 575 2942 
Q 747 3159 1072 3276 
Q 1397 3394 1825 3394 
Q 2250 3394 2515 3294 
Q 2781 3194 2906 3042 
Q 3031 2891 3081 2659 
Q 3109 2516 3109 2141 
L 3109 1391 
Q 3109 606 3145 398 
Q 3181 191 3288 0 
L 2700 0 
Q 2613 175 2588 409 
z
M 2541 1666 
Q 2234 1541 1622 1453 
Q 1275 1403 1131 1340 
Q 988 1278 909 1158 
Q 831 1038 831 891 
Q 831 666 1001 516 
Q 1172 366 1500 366 
Q 1825 366 2078 508 
Q 2331 650 2450 897 
Q 2541 1088 2541 1459 
L 2541 1666 
z
" transform="scale(0.015625)"/>
       <path id="ArialMT-72" d="M 416 0 
L 416 3319 
L 922 3319 
L 922 2816 
Q 1116 3169 1280 3281 
Q 1444 3394 1641 3394 
Q 1925 3394 2219 3213 
L 2025 2691 
Q 1819 2813 1613 2813 
Q 1428 2813 1281 2702 
Q 1134 2591 1072 2394 
Q 978 2094 978 1738 
L 978 0 
L 416 0 
z
" transform="scale(0.015625)"/>
       <path id="ArialMT-6e" d="M 422 0 
L 422 3319 
L 928 3319 
L 928 2847 
Q 1294 3394 1984 3394 
Q 2284 3394 2536 3286 
Q 2788 3178 2913 3003 
Q 3038 2828 3088 2588 
Q 3119 2431 3119 2041 
L 3119 0 
L 2556 0 
L 2556 2019 
Q 2556 2363 2490 2533 
Q 2425 2703 2258 2804 
Q 2091 2906 1866 2906 
Q 1506 2906 1245 2678 
Q 984 2450 984 1813 
L 984 0 
L 422 0 
z
" transform="scale(0.015625)"/>
       <path id="ArialMT-69" d="M 425 3934 
L 425 4581 
L 988 4581 
L 988 3934 
L 425 3934 
z
M 425 0 
L 425 3319 
L 988 3319 
L 988 0 
L 425 0 
z
" transform="scale(0.015625)"/>
       <path id="ArialMT-67" d="M 319 -275 
L 866 -356 
Q 900 -609 1056 -725 
Q 1266 -881 1628 -881 
Q 2019 -881 2231 -725 
Q 2444 -569 2519 -288 
Q 2563 -116 2559 434 
Q 2191 0 1641 0 
Q 956 0 581 494 
Q 206 988 206 1678 
Q 206 2153 378 2554 
Q 550 2956 876 3175 
Q 1203 3394 1644 3394 
Q 2231 3394 2613 2919 
L 2613 3319 
L 3131 3319 
L 3131 450 
Q 3131 -325 2973 -648 
Q 2816 -972 2473 -1159 
Q 2131 -1347 1631 -1347 
Q 1038 -1347 672 -1080 
Q 306 -813 319 -275 
z
M 784 1719 
Q 784 1066 1043 766 
Q 1303 466 1694 466 
Q 2081 466 2343 764 
Q 2606 1063 2606 1700 
Q 2606 2309 2336 2618 
Q 2066 2928 1684 2928 
Q 1309 2928 1046 2623 
Q 784 2319 784 1719 
z
" transform="scale(0.015625)"/>
       <path id="ArialMT-20" transform="scale(0.015625)"/>
       <path id="ArialMT-52" d="M 503 0 
L 503 4581 
L 2534 4581 
Q 3147 4581 3465 4457 
Q 3784 4334 3975 4021 
Q 4166 3709 4166 3331 
Q 4166 2844 3850 2509 
Q 3534 2175 2875 2084 
Q 3116 1969 3241 1856 
Q 3506 1613 3744 1247 
L 4541 0 
L 3778 0 
L 3172 953 
Q 2906 1366 2734 1584 
Q 2563 1803 2427 1890 
Q 2291 1978 2150 2013 
Q 2047 2034 1813 2034 
L 1109 2034 
L 1109 0 
L 503 0 
z
M 1109 2559 
L 2413 2559 
Q 2828 2559 3062 2645 
Q 3297 2731 3419 2920 
Q 3541 3109 3541 3331 
Q 3541 3656 3305 3865 
Q 3069 4075 2559 4075 
L 1109 4075 
L 1109 2559 
z
" transform="scale(0.015625)"/>
       <path id="ArialMT-74" d="M 1650 503 
L 1731 6 
Q 1494 -44 1306 -44 
Q 1000 -44 831 53 
Q 663 150 594 308 
Q 525 466 525 972 
L 525 2881 
L 113 2881 
L 113 3319 
L 525 3319 
L 525 4141 
L 1084 4478 
L 1084 3319 
L 1650 3319 
L 1650 2881 
L 1084 2881 
L 1084 941 
Q 1084 700 1114 631 
Q 1144 563 1211 522 
Q 1278 481 1403 481 
Q 1497 481 1650 503 
z
" transform="scale(0.015625)"/>
       <path id="ArialMT-3b7" d="M 434 0 
L 434 3319 
L 941 3319 
L 941 2847 
Q 1306 3394 1997 3394 
Q 2403 3394 2678 3219 
Q 2953 3044 3042 2786 
Q 3131 2528 3131 2041 
L 3131 -1272 
L 2569 -1272 
L 2569 2019 
Q 2569 2481 2406 2693 
Q 2244 2906 1872 2906 
Q 1506 2906 1251 2672 
Q 997 2438 997 1813 
L 997 0 
L 434 0 
z
" transform="scale(0.015625)"/>
       <path id="ArialMT-28" d="M 1497 -1347 
Q 1031 -759 709 28 
Q 388 816 388 1659 
Q 388 2403 628 3084 
Q 909 3875 1497 4659 
L 1900 4659 
Q 1522 4009 1400 3731 
Q 1209 3300 1100 2831 
Q 966 2247 966 1656 
Q 966 153 1900 -1347 
L 1497 -1347 
z
" transform="scale(0.015625)"/>
       <path id="ArialMT-29" d="M 791 -1347 
L 388 -1347 
Q 1322 153 1322 1656 
Q 1322 2244 1188 2822 
Q 1081 3291 891 3722 
Q 769 4003 388 4659 
L 791 4659 
Q 1378 3875 1659 3084 
Q 1900 2403 1900 1659 
Q 1900 816 1576 28 
Q 1253 -759 791 -1347 
z
" transform="scale(0.015625)"/>
      </defs>
      <use xlink:href="#ArialMT-4c"/>
      <use xlink:href="#ArialMT-65" transform="translate(55.615234 0)"/>
      <use xlink:href="#ArialMT-61" transform="translate(111.230469 0)"/>
      <use xlink:href="#ArialMT-72" transform="translate(166.845703 0)"/>
      <use xlink:href="#ArialMT-6e" transform="translate(200.146484 0)"/>
      <use xlink:href="#ArialMT-69" transform="translate(255.761719 0)"/>
      <use xlink:href="#ArialMT-6e" transform="translate(277.978516 0)"/>
      <use xlink:href="#ArialMT-67" transform="translate(333.59375 0)"/>
      <use xlink:href="#ArialMT-20" transform="translate(389.208984 0)"/>
      <use xlink:href="#ArialMT-52" transform="translate(416.992188 0)"/>
      <use xlink:href="#ArialMT-61" transform="translate(489.208984 0)"/>
      <use xlink:href="#ArialMT-74" transform="translate(544.824219 0)"/>
      <use xlink:href="#ArialMT-65" transform="translate(572.607422 0)"/>
      <use xlink:href="#ArialMT-20" transform="translate(628.222656 0)"/>
      <use xlink:href="#ArialMT-3b7" transform="translate(656.005859 0)"/>
      <use xlink:href="#ArialMT-28" transform="translate(711.621094 0)"/>
      <use xlink:href="#ArialMT-74" transform="translate(744.921875 0)"/>
      <use xlink:href="#ArialMT-29" transform="translate(772.705078 0)"/>
     </g>
    </g>
   </g>
   <g id="patch_3">
    <path d="M 66.633212 153.149496 
L 176.495609 153.149496 
L 176.495609 7.2 
L 66.633212 7.2 
z
" clip-path="url(#p930782e892)" style="fill: #c6dbef; opacity: 0.4"/>
   </g>
   <g id="patch_4">
    <path d="M 176.495609 153.149496 
L 322.978805 153.149496 
L 322.978805 7.2 
L 176.495609 7.2 
z
" clip-path="url(#p930782e892)" style="fill: #fdd0a2; opacity: 0.4"/>
   </g>
   <g id="patch_5">
    <path d="M 322.978805 153.149496 
L 432.841202 153.149496 
L 432.841202 7.2 
L 322.978805 7.2 
z
" clip-path="url(#p930782e892)" style="fill: #c7e9c0; opacity: 0.4"/>
   </g>
   <g id="line2d_13">
    <path d="M 66.633212 13.834068 
L 73.238166 13.940536 
L 79.843119 14.259597 
L 86.448073 14.790227 
L 93.053027 15.530723 
L 99.657981 16.478709 
L 106.262934 17.631142 
L 113.601772 19.146885 
L 120.940609 20.904442 
L 128.279447 22.896851 
L 135.618284 25.116216 
L 142.957122 27.553744 
L 151.029843 30.475449 
L 159.102564 33.63542 
L 167.909169 37.336571 
L 176.715774 41.282114 
L 186.256263 45.806102 
L 196.530635 50.93451 
L 207.538892 56.680062 
L 220.014915 63.441966 
L 236.160358 72.465383 
L 283.862801 99.31999 
L 296.338825 105.995694 
L 307.347081 111.643038 
L 317.621454 116.661852 
L 327.161942 121.069326 
L 335.968547 124.895403 
L 344.775152 128.466348 
L 352.847874 131.498163 
L 360.920595 134.283926 
L 368.259432 136.591661 
L 375.59827 138.67585 
L 382.937107 140.528237 
L 390.275945 142.141481 
L 397.614782 143.509189 
L 404.219736 144.525695 
L 410.82469 145.335652 
L 417.429643 145.93646 
L 424.034597 146.326192 
L 430.639551 146.503595 
L 432.841202 146.515428 
L 432.841202 146.515428 
" clip-path="url(#p930782e892)" style="fill: none; stroke: #4c72b0; stroke-width: 2; stroke-linecap: round"/>
   </g>
   <g id="line2d_14">
    <path d="M 66.633212 13.834068 
L 95.988562 19.263027 
L 123.876144 24.64434 
L 149.562075 29.820147 
L 173.780239 34.919848 
L 196.530635 39.932517 
L 217.813264 44.845281 
L 237.628125 49.642939 
L 255.975219 54.307521 
L 272.854545 58.817792 
L 288.999988 63.36056 
L 303.677662 67.717286 
L 317.621454 72.092035 
L 330.097477 76.236738 
L 341.839617 80.374469 
L 352.11399 84.220027 
L 361.654479 88.016823 
L 370.461084 91.754714 
L 378.533805 95.420769 
L 385.872642 98.998361 
L 392.477596 102.465928 
L 398.348666 105.795353 
L 403.485852 108.949888 
L 407.889155 111.881711 
L 412.292457 115.085842 
L 415.961876 118.029947 
L 418.897411 120.625166 
L 421.832946 123.511327 
L 424.034597 125.939934 
L 426.236248 128.696528 
L 427.704016 130.800635 
L 429.171783 133.234004 
L 430.639551 136.227681 
L 431.373435 138.115518 
L 432.107318 140.575794 
L 432.841202 146.515428 
L 432.841202 146.515428 
" clip-path="url(#p930782e892)" style="fill: none; stroke: #dd8452; stroke-width: 2; stroke-linecap: round"/>
   </g>
   <g id="line2d_15">
    <path d="M 66.633212 13.834068 
L 71.036514 21.575853 
L 75.439817 28.865914 
L 79.843119 35.73061 
L 84.246422 42.19476 
L 88.649724 48.281735 
L 93.053027 54.013543 
L 97.456329 59.410908 
L 101.859632 64.493343 
L 106.262934 69.279225 
L 111.400121 74.510971 
L 116.537307 79.388335 
L 121.674493 83.93532 
L 126.811679 88.174307 
L 131.948866 92.126158 
L 137.086052 95.810322 
L 142.223238 99.244932 
L 148.094308 102.886256 
L 153.965378 106.247082 
L 159.836448 109.349019 
L 165.707518 112.212008 
L 172.312472 115.170117 
L 178.917425 117.873137 
L 185.522379 120.343066 
L 192.861217 122.838441 
L 200.200054 125.095897 
L 208.272775 127.33131 
L 216.345497 129.333428 
L 225.152101 131.280026 
L 233.958706 133.006087 
L 243.499195 134.656028 
L 253.773568 136.208253 
L 264.781824 137.646627 
L 276.523964 138.960357 
L 289.733871 140.207178 
L 303.677662 141.300749 
L 319.089221 142.29027 
L 336.702431 143.193399 
L 356.517292 143.980831 
L 379.267688 144.65759 
L 406.421387 145.233107 
L 432.841202 145.621428 
L 432.841202 145.621428 
" clip-path="url(#p930782e892)" style="fill: none; stroke: #55a868; stroke-width: 2; stroke-linecap: round"/>
   </g>
   <g id="line2d_16">
    <path d="M 66.633212 14.722085 
L 83.512538 15.236553 
L 97.456329 15.876458 
L 109.198469 16.632223 
L 119.472842 17.513338 
L 128.279447 18.478573 
L 136.352168 19.574472 
L 143.691006 20.781528 
L 151.029843 22.225618 
L 157.634797 23.760121 
L 163.505867 25.336503 
L 169.376937 27.136106 
L 175.248007 29.181604 
L 180.385193 31.190543 
L 185.522379 33.418554 
L 190.659565 35.877901 
L 195.796752 38.578513 
L 200.933938 41.527166 
L 206.071124 44.726626 
L 211.20831 48.174822 
L 217.07938 52.410099 
L 222.95045 56.938763 
L 229.555404 62.343531 
L 236.894241 68.659644 
L 246.43473 77.18546 
L 264.04794 92.974629 
L 271.386778 99.232619 
L 277.991731 104.568826 
L 283.862801 109.02674 
L 289.733871 113.184919 
L 294.871058 116.562572 
L 300.008244 119.690357 
L 305.14543 122.567668 
L 310.282616 125.198502 
L 315.419802 127.590623 
L 320.556989 129.754707 
L 325.694175 131.703547 
L 331.565245 133.68546 
L 337.436315 135.42713 
L 343.307385 136.951235 
L 349.912339 138.43348 
L 356.517292 139.698727 
L 363.85613 140.884083 
L 371.928851 141.959908 
L 380.735456 142.907172 
L 391.009828 143.771642 
L 402.018085 144.473037 
L 415.227992 145.084859 
L 430.639551 145.572777 
L 432.841202 145.627411 
L 432.841202 145.627411 
" clip-path="url(#p930782e892)" style="fill: none; stroke: #c44e52; stroke-width: 2; stroke-linecap: round"/>
   </g>
   <g id="patch_6">
    <path d="M 48.322813 153.149496 
L 48.322813 7.2 
" style="fill: none; stroke: #cccccc; stroke-width: 0.8; stroke-linejoin: miter; stroke-linecap: square"/>
   </g>
   <g id="patch_7">
    <path d="M 48.322812 153.149496 
L 451.151602 153.149496 
" style="fill: none; stroke: #cccccc; stroke-width: 0.8; stroke-linejoin: miter; stroke-linecap: square"/>
   </g>
   <g id="legend_1">
    <g id="line2d_17">
     <path d="M 369.078633 18.592031 
L 378.078633 18.592031 
L 387.078633 18.592031 
" style="fill: none; stroke: #4c72b0; stroke-width: 2; stroke-linecap: round"/>
    </g>
    <g id="text_8">
     <!-- Cosine -->
     <g style="fill: #262626" transform="translate(394.278633 21.742031) scale(0.09 -0.09)">
      <defs>
       <path id="ArialMT-43" d="M 3763 1606 
L 4369 1453 
Q 4178 706 3683 314 
Q 3188 -78 2472 -78 
Q 1731 -78 1267 223 
Q 803 525 561 1097 
Q 319 1669 319 2325 
Q 319 3041 592 3573 
Q 866 4106 1370 4382 
Q 1875 4659 2481 4659 
Q 3169 4659 3637 4309 
Q 4106 3959 4291 3325 
L 3694 3184 
Q 3534 3684 3231 3912 
Q 2928 4141 2469 4141 
Q 1941 4141 1586 3887 
Q 1231 3634 1087 3207 
Q 944 2781 944 2328 
Q 944 1744 1114 1308 
Q 1284 872 1643 656 
Q 2003 441 2422 441 
Q 2931 441 3284 734 
Q 3638 1028 3763 1606 
z
" transform="scale(0.015625)"/>
       <path id="ArialMT-6f" d="M 213 1659 
Q 213 2581 725 3025 
Q 1153 3394 1769 3394 
Q 2453 3394 2887 2945 
Q 3322 2497 3322 1706 
Q 3322 1066 3130 698 
Q 2938 331 2570 128 
Q 2203 -75 1769 -75 
Q 1072 -75 642 372 
Q 213 819 213 1659 
z
M 791 1659 
Q 791 1022 1069 705 
Q 1347 388 1769 388 
Q 2188 388 2466 706 
Q 2744 1025 2744 1678 
Q 2744 2294 2464 2611 
Q 2184 2928 1769 2928 
Q 1347 2928 1069 2612 
Q 791 2297 791 1659 
z
" transform="scale(0.015625)"/>
       <path id="ArialMT-73" d="M 197 991 
L 753 1078 
Q 800 744 1014 566 
Q 1228 388 1613 388 
Q 2000 388 2187 545 
Q 2375 703 2375 916 
Q 2375 1106 2209 1216 
Q 2094 1291 1634 1406 
Q 1016 1563 777 1677 
Q 538 1791 414 1992 
Q 291 2194 291 2438 
Q 291 2659 392 2848 
Q 494 3038 669 3163 
Q 800 3259 1026 3326 
Q 1253 3394 1513 3394 
Q 1903 3394 2198 3281 
Q 2494 3169 2634 2976 
Q 2775 2784 2828 2463 
L 2278 2388 
Q 2241 2644 2061 2787 
Q 1881 2931 1553 2931 
Q 1166 2931 1000 2803 
Q 834 2675 834 2503 
Q 834 2394 903 2306 
Q 972 2216 1119 2156 
Q 1203 2125 1616 2013 
Q 2213 1853 2448 1751 
Q 2684 1650 2818 1456 
Q 2953 1263 2953 975 
Q 2953 694 2789 445 
Q 2625 197 2315 61 
Q 2006 -75 1616 -75 
Q 969 -75 630 194 
Q 291 463 197 991 
z
" transform="scale(0.015625)"/>
      </defs>
      <use xlink:href="#ArialMT-43"/>
      <use xlink:href="#ArialMT-6f" transform="translate(72.216797 0)"/>
      <use xlink:href="#ArialMT-73" transform="translate(127.832031 0)"/>
      <use xlink:href="#ArialMT-69" transform="translate(177.832031 0)"/>
      <use xlink:href="#ArialMT-6e" transform="translate(200.048828 0)"/>
      <use xlink:href="#ArialMT-65" transform="translate(255.664062 0)"/>
     </g>
    </g>
    <g id="line2d_18">
     <path d="M 369.078633 31.4325 
L 378.078633 31.4325 
L 387.078633 31.4325 
" style="fill: none; stroke: #dd8452; stroke-width: 2; stroke-linecap: round"/>
    </g>
    <g id="text_9">
     <!-- Poly (p=0.5) -->
     <g style="fill: #262626" transform="translate(394.278633 34.5825) scale(0.09 -0.09)">
      <defs>
       <path id="ArialMT-50" d="M 494 0 
L 494 4581 
L 2222 4581 
Q 2678 4581 2919 4538 
Q 3256 4481 3484 4323 
Q 3713 4166 3852 3881 
Q 3991 3597 3991 3256 
Q 3991 2672 3619 2267 
Q 3247 1863 2275 1863 
L 1100 1863 
L 1100 0 
L 494 0 
z
M 1100 2403 
L 2284 2403 
Q 2872 2403 3119 2622 
Q 3366 2841 3366 3238 
Q 3366 3525 3220 3729 
Q 3075 3934 2838 4000 
Q 2684 4041 2272 4041 
L 1100 4041 
L 1100 2403 
z
" transform="scale(0.015625)"/>
       <path id="ArialMT-6c" d="M 409 0 
L 409 4581 
L 972 4581 
L 972 0 
L 409 0 
z
" transform="scale(0.015625)"/>
       <path id="ArialMT-79" d="M 397 -1278 
L 334 -750 
Q 519 -800 656 -800 
Q 844 -800 956 -737 
Q 1069 -675 1141 -563 
Q 1194 -478 1313 -144 
Q 1328 -97 1363 -6 
L 103 3319 
L 709 3319 
L 1400 1397 
Q 1534 1031 1641 628 
Q 1738 1016 1872 1384 
L 2581 3319 
L 3144 3319 
L 1881 -56 
Q 1678 -603 1566 -809 
Q 1416 -1088 1222 -1217 
Q 1028 -1347 759 -1347 
Q 597 -1347 397 -1278 
z
" transform="scale(0.015625)"/>
       <path id="ArialMT-70" d="M 422 -1272 
L 422 3319 
L 934 3319 
L 934 2888 
Q 1116 3141 1344 3267 
Q 1572 3394 1897 3394 
Q 2322 3394 2647 3175 
Q 2972 2956 3137 2557 
Q 3303 2159 3303 1684 
Q 3303 1175 3120 767 
Q 2938 359 2589 142 
Q 2241 -75 1856 -75 
Q 1575 -75 1351 44 
Q 1128 163 984 344 
L 984 -1272 
L 422 -1272 
z
M 931 1641 
Q 931 1000 1190 694 
Q 1450 388 1819 388 
Q 2194 388 2461 705 
Q 2728 1022 2728 1688 
Q 2728 2322 2467 2637 
Q 2206 2953 1844 2953 
Q 1484 2953 1207 2617 
Q 931 2281 931 1641 
z
" transform="scale(0.015625)"/>
       <path id="ArialMT-3d" d="M 3381 2694 
L 356 2694 
L 356 3219 
L 3381 3219 
L 3381 2694 
z
M 3381 1303 
L 356 1303 
L 356 1828 
L 3381 1828 
L 3381 1303 
z
" transform="scale(0.015625)"/>
       <path id="ArialMT-35" d="M 266 1200 
L 856 1250 
Q 922 819 1161 601 
Q 1400 384 1738 384 
Q 2144 384 2425 690 
Q 2706 997 2706 1503 
Q 2706 1984 2436 2262 
Q 2166 2541 1728 2541 
Q 1456 2541 1237 2417 
Q 1019 2294 894 2097 
L 366 2166 
L 809 4519 
L 3088 4519 
L 3088 3981 
L 1259 3981 
L 1013 2750 
Q 1425 3038 1878 3038 
Q 2478 3038 2890 2622 
Q 3303 2206 3303 1553 
Q 3303 931 2941 478 
Q 2500 -78 1738 -78 
Q 1113 -78 717 272 
Q 322 622 266 1200 
z
" transform="scale(0.015625)"/>
      </defs>
      <use xlink:href="#ArialMT-50"/>
      <use xlink:href="#ArialMT-6f" transform="translate(66.699219 0)"/>
      <use xlink:href="#ArialMT-6c" transform="translate(122.314453 0)"/>
      <use xlink:href="#ArialMT-79" transform="translate(144.53125 0)"/>
      <use xlink:href="#ArialMT-20" transform="translate(194.53125 0)"/>
      <use xlink:href="#ArialMT-28" transform="translate(222.314453 0)"/>
      <use xlink:href="#ArialMT-70" transform="translate(255.615234 0)"/>
      <use xlink:href="#ArialMT-3d" transform="translate(311.230469 0)"/>
      <use xlink:href="#ArialMT-30" transform="translate(369.628906 0)"/>
      <use xlink:href="#ArialMT-2e" transform="translate(425.244141 0)"/>
      <use xlink:href="#ArialMT-35" transform="translate(453.027344 0)"/>
      <use xlink:href="#ArialMT-29" transform="translate(508.642578 0)"/>
     </g>
    </g>
    <g id="line2d_19">
     <path d="M 369.078633 44.26875 
L 378.078633 44.26875 
L 387.078633 44.26875 
" style="fill: none; stroke: #55a868; stroke-width: 2; stroke-linecap: round"/>
    </g>
    <g id="text_10">
     <!-- Exponential -->
     <g style="fill: #262626" transform="translate(394.278633 47.41875) scale(0.09 -0.09)">
      <defs>
       <path id="ArialMT-45" d="M 506 0 
L 506 4581 
L 3819 4581 
L 3819 4041 
L 1113 4041 
L 1113 2638 
L 3647 2638 
L 3647 2100 
L 1113 2100 
L 1113 541 
L 3925 541 
L 3925 0 
L 506 0 
z
" transform="scale(0.015625)"/>
       <path id="ArialMT-78" d="M 47 0 
L 1259 1725 
L 138 3319 
L 841 3319 
L 1350 2541 
Q 1494 2319 1581 2169 
Q 1719 2375 1834 2534 
L 2394 3319 
L 3066 3319 
L 1919 1756 
L 3153 0 
L 2463 0 
L 1781 1031 
L 1600 1309 
L 728 0 
L 47 0 
z
" transform="scale(0.015625)"/>
      </defs>
      <use xlink:href="#ArialMT-45"/>
      <use xlink:href="#ArialMT-78" transform="translate(66.699219 0)"/>
      <use xlink:href="#ArialMT-70" transform="translate(116.699219 0)"/>
      <use xlink:href="#ArialMT-6f" transform="translate(172.314453 0)"/>
      <use xlink:href="#ArialMT-6e" transform="translate(227.929688 0)"/>
      <use xlink:href="#ArialMT-65" transform="translate(283.544922 0)"/>
      <use xlink:href="#ArialMT-6e" transform="translate(339.160156 0)"/>
      <use xlink:href="#ArialMT-74" transform="translate(394.775391 0)"/>
      <use xlink:href="#ArialMT-69" transform="translate(422.558594 0)"/>
      <use xlink:href="#ArialMT-61" transform="translate(444.775391 0)"/>
      <use xlink:href="#ArialMT-6c" transform="translate(500.390625 0)"/>
     </g>
    </g>
    <g id="line2d_20">
     <path d="M 369.078633 56.999531 
L 378.078633 56.999531 
L 387.078633 56.999531 
" style="fill: none; stroke: #c44e52; stroke-width: 2; stroke-linecap: round"/>
    </g>
    <g id="text_11">
     <!-- Logistic -->
     <g style="fill: #262626" transform="translate(394.278633 60.149531) scale(0.09 -0.09)">
      <defs>
       <path id="ArialMT-63" d="M 2588 1216 
L 3141 1144 
Q 3050 572 2676 248 
Q 2303 -75 1759 -75 
Q 1078 -75 664 370 
Q 250 816 250 1647 
Q 250 2184 428 2587 
Q 606 2991 970 3192 
Q 1334 3394 1763 3394 
Q 2303 3394 2647 3120 
Q 2991 2847 3088 2344 
L 2541 2259 
Q 2463 2594 2264 2762 
Q 2066 2931 1784 2931 
Q 1359 2931 1093 2626 
Q 828 2322 828 1663 
Q 828 994 1084 691 
Q 1341 388 1753 388 
Q 2084 388 2306 591 
Q 2528 794 2588 1216 
z
" transform="scale(0.015625)"/>
      </defs>
      <use xlink:href="#ArialMT-4c"/>
      <use xlink:href="#ArialMT-6f" transform="translate(55.615234 0)"/>
      <use xlink:href="#ArialMT-67" transform="translate(111.230469 0)"/>
      <use xlink:href="#ArialMT-69" transform="translate(166.845703 0)"/>
      <use xlink:href="#ArialMT-73" transform="translate(189.0625 0)"/>
      <use xlink:href="#ArialMT-74" transform="translate(239.0625 0)"/>
      <use xlink:href="#ArialMT-69" transform="translate(266.845703 0)"/>
      <use xlink:href="#ArialMT-63" transform="translate(289.0625 0)"/>
     </g>
    </g>
   </g>
  </g>
  <g id="axes_2">
   <g id="patch_8">
    <path d="M 48.322813 312.28 
L 451.151602 312.28 
L 451.151602 166.330504 
L 48.322813 166.330504 
z
" style="fill: #ffffff"/>
   </g>
   <g id="matplotlib.axis_3">
    <g id="xtick_7">
     <g id="line2d_21">
      <path d="M 66.633212 312.28 
L 66.633212 166.330504 
" clip-path="url(#pd8a161153a)" style="fill: none; stroke: #cccccc; stroke-width: 0.8; stroke-linecap: round"/>
     </g>
     <g id="text_12">
      <!-- 0.0 -->
      <g style="fill: #262626" transform="translate(59.683212 326.437813) scale(0.1 -0.1)">
       <use xlink:href="#ArialMT-30"/>
       <use xlink:href="#ArialMT-2e" transform="translate(55.615234 0)"/>
       <use xlink:href="#ArialMT-30" transform="translate(83.398438 0)"/>
      </g>
     </g>
    </g>
    <g id="xtick_8">
     <g id="line2d_22">
      <path d="M 139.87481 312.28 
L 139.87481 166.330504 
" clip-path="url(#pd8a161153a)" style="fill: none; stroke: #cccccc; stroke-width: 0.8; stroke-linecap: round"/>
     </g>
     <g id="text_13">
      <!-- 0.2 -->
      <g style="fill: #262626" transform="translate(132.92481 326.437813) scale(0.1 -0.1)">
       <use xlink:href="#ArialMT-30"/>
       <use xlink:href="#ArialMT-2e" transform="translate(55.615234 0)"/>
       <use xlink:href="#ArialMT-32" transform="translate(83.398438 0)"/>
      </g>
     </g>
    </g>
    <g id="xtick_9">
     <g id="line2d_23">
      <path d="M 213.116408 312.28 
L 213.116408 166.330504 
" clip-path="url(#pd8a161153a)" style="fill: none; stroke: #cccccc; stroke-width: 0.8; stroke-linecap: round"/>
     </g>
     <g id="text_14">
      <!-- 0.4 -->
      <g style="fill: #262626" transform="translate(206.166408 326.437813) scale(0.1 -0.1)">
       <use xlink:href="#ArialMT-30"/>
       <use xlink:href="#ArialMT-2e" transform="translate(55.615234 0)"/>
       <use xlink:href="#ArialMT-34" transform="translate(83.398438 0)"/>
      </g>
     </g>
    </g>
    <g id="xtick_10">
     <g id="line2d_24">
      <path d="M 286.358006 312.28 
L 286.358006 166.330504 
" clip-path="url(#pd8a161153a)" style="fill: none; stroke: #cccccc; stroke-width: 0.8; stroke-linecap: round"/>
     </g>
     <g id="text_15">
      <!-- 0.6 -->
      <g style="fill: #262626" transform="translate(279.408006 326.437813) scale(0.1 -0.1)">
       <use xlink:href="#ArialMT-30"/>
       <use xlink:href="#ArialMT-2e" transform="translate(55.615234 0)"/>
       <use xlink:href="#ArialMT-36" transform="translate(83.398438 0)"/>
      </g>
     </g>
    </g>
    <g id="xtick_11">
     <g id="line2d_25">
      <path d="M 359.599604 312.28 
L 359.599604 166.330504 
" clip-path="url(#pd8a161153a)" style="fill: none; stroke: #cccccc; stroke-width: 0.8; stroke-linecap: round"/>
     </g>
     <g id="text_16">
      <!-- 0.8 -->
      <g style="fill: #262626" transform="translate(352.649604 326.437813) scale(0.1 -0.1)">
       <use xlink:href="#ArialMT-30"/>
       <use xlink:href="#ArialMT-2e" transform="translate(55.615234 0)"/>
       <use xlink:href="#ArialMT-38" transform="translate(83.398438 0)"/>
      </g>
     </g>
    </g>
    <g id="xtick_12">
     <g id="line2d_26">
      <path d="M 432.841202 312.28 
L 432.841202 166.330504 
" clip-path="url(#pd8a161153a)" style="fill: none; stroke: #cccccc; stroke-width: 0.8; stroke-linecap: round"/>
     </g>
     <g id="text_17">
      <!-- 1.0 -->
      <g style="fill: #262626" transform="translate(425.891202 326.437813) scale(0.1 -0.1)">
       <use xlink:href="#ArialMT-31"/>
       <use xlink:href="#ArialMT-2e" transform="translate(55.615234 0)"/>
       <use xlink:href="#ArialMT-30" transform="translate(83.398438 0)"/>
      </g>
     </g>
    </g>
    <g id="text_18">
     <!-- Normalized Time -->
     <g style="fill: #262626" transform="translate(208.477754 340.298906) scale(0.11 -0.11)">
      <defs>
       <path id="ArialMT-4e" d="M 488 0 
L 488 4581 
L 1109 4581 
L 3516 984 
L 3516 4581 
L 4097 4581 
L 4097 0 
L 3475 0 
L 1069 3600 
L 1069 0 
L 488 0 
z
" transform="scale(0.015625)"/>
       <path id="ArialMT-6d" d="M 422 0 
L 422 3319 
L 925 3319 
L 925 2853 
Q 1081 3097 1340 3245 
Q 1600 3394 1931 3394 
Q 2300 3394 2536 3241 
Q 2772 3088 2869 2813 
Q 3263 3394 3894 3394 
Q 4388 3394 4653 3120 
Q 4919 2847 4919 2278 
L 4919 0 
L 4359 0 
L 4359 2091 
Q 4359 2428 4304 2576 
Q 4250 2725 4106 2815 
Q 3963 2906 3769 2906 
Q 3419 2906 3187 2673 
Q 2956 2441 2956 1928 
L 2956 0 
L 2394 0 
L 2394 2156 
Q 2394 2531 2256 2718 
Q 2119 2906 1806 2906 
Q 1569 2906 1367 2781 
Q 1166 2656 1075 2415 
Q 984 2175 984 1722 
L 984 0 
L 422 0 
z
" transform="scale(0.015625)"/>
       <path id="ArialMT-7a" d="M 125 0 
L 125 456 
L 2238 2881 
Q 1878 2863 1603 2863 
L 250 2863 
L 250 3319 
L 2963 3319 
L 2963 2947 
L 1166 841 
L 819 456 
Q 1197 484 1528 484 
L 3063 484 
L 3063 0 
L 125 0 
z
" transform="scale(0.015625)"/>
       <path id="ArialMT-64" d="M 2575 0 
L 2575 419 
Q 2259 -75 1647 -75 
Q 1250 -75 917 144 
Q 584 363 401 755 
Q 219 1147 219 1656 
Q 219 2153 384 2558 
Q 550 2963 881 3178 
Q 1213 3394 1622 3394 
Q 1922 3394 2156 3267 
Q 2391 3141 2538 2938 
L 2538 4581 
L 3097 4581 
L 3097 0 
L 2575 0 
z
M 797 1656 
Q 797 1019 1065 703 
Q 1334 388 1700 388 
Q 2069 388 2326 689 
Q 2584 991 2584 1609 
Q 2584 2291 2321 2609 
Q 2059 2928 1675 2928 
Q 1300 2928 1048 2622 
Q 797 2316 797 1656 
z
" transform="scale(0.015625)"/>
       <path id="ArialMT-54" d="M 1659 0 
L 1659 4041 
L 150 4041 
L 150 4581 
L 3781 4581 
L 3781 4041 
L 2266 4041 
L 2266 0 
L 1659 0 
z
" transform="scale(0.015625)"/>
      </defs>
      <use xlink:href="#ArialMT-4e"/>
      <use xlink:href="#ArialMT-6f" transform="translate(72.216797 0)"/>
      <use xlink:href="#ArialMT-72" transform="translate(127.832031 0)"/>
      <use xlink:href="#ArialMT-6d" transform="translate(161.132812 0)"/>
      <use xlink:href="#ArialMT-61" transform="translate(244.433594 0)"/>
      <use xlink:href="#ArialMT-6c" transform="translate(300.048828 0)"/>
      <use xlink:href="#ArialMT-69" transform="translate(322.265625 0)"/>
      <use xlink:href="#ArialMT-7a" transform="translate(344.482422 0)"/>
      <use xlink:href="#ArialMT-65" transform="translate(394.482422 0)"/>
      <use xlink:href="#ArialMT-64" transform="translate(450.097656 0)"/>
      <use xlink:href="#ArialMT-20" transform="translate(505.712891 0)"/>
      <use xlink:href="#ArialMT-54" transform="translate(531.746094 0)"/>
      <use xlink:href="#ArialMT-69" transform="translate(589.080078 0)"/>
      <use xlink:href="#ArialMT-6d" transform="translate(611.296875 0)"/>
      <use xlink:href="#ArialMT-65" transform="translate(694.597656 0)"/>
     </g>
    </g>
   </g>
   <g id="matplotlib.axis_4">
    <g id="ytick_7">
     <g id="line2d_27">
      <path d="M 48.322813 297.99611 
L 451.151602 297.99611 
" clip-path="url(#pd8a161153a)" style="fill: none; stroke: #cccccc; stroke-width: 0.8; stroke-linecap: round"/>
     </g>
     <g id="text_19">
      <!-- $\mathdefault{10^{-2}}$ -->
      <g style="fill: #262626" transform="translate(21.522813 303.15236) scale(0.1 -0.1)">
       <defs>
        <path id="ArialMT-2212" d="M 3381 1997 
L 356 1997 
L 356 2522 
L 3381 2522 
L 3381 1997 
z
" transform="scale(0.015625)"/>
       </defs>
       <use xlink:href="#ArialMT-31" transform="translate(0 0.99375)"/>
       <use xlink:href="#ArialMT-30" transform="translate(55.615234 0.99375)"/>
       <use xlink:href="#ArialMT-2212" transform="translate(112.972813 70.6875) scale(0.7)"/>
       <use xlink:href="#ArialMT-32" transform="translate(153.851719 70.6875) scale(0.7)"/>
      </g>
     </g>
    </g>
    <g id="ytick_8">
     <g id="line2d_28">
      <path d="M 48.322813 272.985432 
L 451.151602 272.985432 
" clip-path="url(#pd8a161153a)" style="fill: none; stroke: #cccccc; stroke-width: 0.8; stroke-linecap: round"/>
     </g>
     <g id="text_20">
      <!-- $\mathdefault{10^{-1}}$ -->
      <g style="fill: #262626" transform="translate(21.522813 278.141682) scale(0.1 -0.1)">
       <use xlink:href="#ArialMT-31" transform="translate(0 0.99375)"/>
       <use xlink:href="#ArialMT-30" transform="translate(55.615234 0.99375)"/>
       <use xlink:href="#ArialMT-2212" transform="translate(112.972813 70.6875) scale(0.7)"/>
       <use xlink:href="#ArialMT-31" transform="translate(153.851719 70.6875) scale(0.7)"/>
      </g>
     </g>
    </g>
    <g id="ytick_9">
     <g id="line2d_29">
      <path d="M 48.322813 247.974754 
L 451.151602 247.974754 
" clip-path="url(#pd8a161153a)" style="fill: none; stroke: #cccccc; stroke-width: 0.8; stroke-linecap: round"/>
     </g>
     <g id="text_21">
      <!-- $\mathdefault{10^{0}}$ -->
      <g style="fill: #262626" transform="translate(25.622813 253.131004) scale(0.1 -0.1)">
       <use xlink:href="#ArialMT-31" transform="translate(0 0.99375)"/>
       <use xlink:href="#ArialMT-30" transform="translate(55.615234 0.99375)"/>
       <use xlink:href="#ArialMT-30" transform="translate(112.972813 70.6875) scale(0.7)"/>
      </g>
     </g>
    </g>
    <g id="ytick_10">
     <g id="line2d_30">
      <path d="M 48.322813 222.964075 
L 451.151602 222.964075 
" clip-path="url(#pd8a161153a)" style="fill: none; stroke: #cccccc; stroke-width: 0.8; stroke-linecap: round"/>
     </g>
     <g id="text_22">
      <!-- $\mathdefault{10^{1}}$ -->
      <g style="fill: #262626" transform="translate(25.622813 228.120325) scale(0.1 -0.1)">
       <use xlink:href="#ArialMT-31" transform="translate(0 0.99375)"/>
       <use xlink:href="#ArialMT-30" transform="translate(55.615234 0.99375)"/>
       <use xlink:href="#ArialMT-31" transform="translate(112.972813 70.6875) scale(0.7)"/>
      </g>
     </g>
    </g>
    <g id="ytick_11">
     <g id="line2d_31">
      <path d="M 48.322813 197.953397 
L 451.151602 197.953397 
" clip-path="url(#pd8a161153a)" style="fill: none; stroke: #cccccc; stroke-width: 0.8; stroke-linecap: round"/>
     </g>
     <g id="text_23">
      <!-- $\mathdefault{10^{2}}$ -->
      <g style="fill: #262626" transform="translate(25.622813 203.109647) scale(0.1 -0.1)">
       <use xlink:href="#ArialMT-31" transform="translate(0 0.99375)"/>
       <use xlink:href="#ArialMT-30" transform="translate(55.615234 0.99375)"/>
       <use xlink:href="#ArialMT-32" transform="translate(112.972813 70.6875) scale(0.7)"/>
      </g>
     </g>
    </g>
    <g id="ytick_12">
     <g id="line2d_32">
      <path d="M 48.322813 172.942719 
L 451.151602 172.942719 
" clip-path="url(#pd8a161153a)" style="fill: none; stroke: #cccccc; stroke-width: 0.8; stroke-linecap: round"/>
     </g>
     <g id="text_24">
      <!-- $\mathdefault{10^{3}}$ -->
      <g style="fill: #262626" transform="translate(25.622813 178.098969) scale(0.1 -0.1)">
       <defs>
        <path id="ArialMT-33" d="M 269 1209 
L 831 1284 
Q 928 806 1161 595 
Q 1394 384 1728 384 
Q 2125 384 2398 659 
Q 2672 934 2672 1341 
Q 2672 1728 2419 1979 
Q 2166 2231 1775 2231 
Q 1616 2231 1378 2169 
L 1441 2663 
Q 1497 2656 1531 2656 
Q 1891 2656 2178 2843 
Q 2466 3031 2466 3422 
Q 2466 3731 2256 3934 
Q 2047 4138 1716 4138 
Q 1388 4138 1169 3931 
Q 950 3725 888 3313 
L 325 3413 
Q 428 3978 793 4289 
Q 1159 4600 1703 4600 
Q 2078 4600 2393 4439 
Q 2709 4278 2876 4000 
Q 3044 3722 3044 3409 
Q 3044 3113 2884 2869 
Q 2725 2625 2413 2481 
Q 2819 2388 3044 2092 
Q 3269 1797 3269 1353 
Q 3269 753 2831 336 
Q 2394 -81 1725 -81 
Q 1122 -81 723 278 
Q 325 638 269 1209 
z
" transform="scale(0.015625)"/>
       </defs>
       <use xlink:href="#ArialMT-31" transform="translate(0 0.99375)"/>
       <use xlink:href="#ArialMT-30" transform="translate(55.615234 0.99375)"/>
       <use xlink:href="#ArialMT-33" transform="translate(112.972813 70.6875) scale(0.7)"/>
      </g>
     </g>
    </g>
    <g id="ytick_13"/>
    <g id="ytick_14"/>
    <g id="ytick_15"/>
    <g id="ytick_16"/>
    <g id="ytick_17"/>
    <g id="ytick_18"/>
    <g id="ytick_19"/>
    <g id="ytick_20"/>
    <g id="ytick_21"/>
    <g id="ytick_22"/>
    <g id="ytick_23"/>
    <g id="ytick_24"/>
    <g id="ytick_25"/>
    <g id="ytick_26"/>
    <g id="ytick_27"/>
    <g id="ytick_28"/>
    <g id="ytick_29"/>
    <g id="ytick_30"/>
    <g id="ytick_31"/>
    <g id="ytick_32"/>
    <g id="ytick_33"/>
    <g id="ytick_34"/>
    <g id="ytick_35"/>
    <g id="ytick_36"/>
    <g id="ytick_37"/>
    <g id="ytick_38"/>
    <g id="ytick_39"/>
    <g id="ytick_40"/>
    <g id="ytick_41"/>
    <g id="ytick_42"/>
    <g id="ytick_43"/>
    <g id="ytick_44"/>
    <g id="ytick_45"/>
    <g id="ytick_46"/>
    <g id="ytick_47"/>
    <g id="ytick_48"/>
    <g id="ytick_49"/>
    <g id="ytick_50"/>
    <g id="ytick_51"/>
    <g id="ytick_52"/>
    <g id="ytick_53"/>
    <g id="ytick_54"/>
    <g id="ytick_55"/>
    <g id="ytick_56"/>
    <g id="ytick_57"/>
    <g id="ytick_58"/>
    <g id="ytick_59"/>
    <g id="text_25">
     <!-- Normalized Rate γ(t) -->
     <g style="fill: #262626" transform="translate(15.207656 289.731658) rotate(-90) scale(0.11 -0.11)">
      <defs>
       <path id="ArialMT-3b3" d="M 78 3319 
L 669 3319 
L 1597 703 
L 2547 3319 
L 3122 3319 
L 1881 0 
L 1881 -1272 
L 1309 -1272 
L 1309 0 
L 78 3319 
z
" transform="scale(0.015625)"/>
      </defs>
      <use xlink:href="#ArialMT-4e"/>
      <use xlink:href="#ArialMT-6f" transform="translate(72.216797 0)"/>
      <use xlink:href="#ArialMT-72" transform="translate(127.832031 0)"/>
      <use xlink:href="#ArialMT-6d" transform="translate(161.132812 0)"/>
      <use xlink:href="#ArialMT-61" transform="translate(244.433594 0)"/>
      <use xlink:href="#ArialMT-6c" transform="translate(300.048828 0)"/>
      <use xlink:href="#ArialMT-69" transform="translate(322.265625 0)"/>
      <use xlink:href="#ArialMT-7a" transform="translate(344.482422 0)"/>
      <use xlink:href="#ArialMT-65" transform="translate(394.482422 0)"/>
      <use xlink:href="#ArialMT-64" transform="translate(450.097656 0)"/>
      <use xlink:href="#ArialMT-20" transform="translate(505.712891 0)"/>
      <use xlink:href="#ArialMT-52" transform="translate(533.496094 0)"/>
      <use xlink:href="#ArialMT-61" transform="translate(605.712891 0)"/>
      <use xlink:href="#ArialMT-74" transform="translate(661.328125 0)"/>
      <use xlink:href="#ArialMT-65" transform="translate(689.111328 0)"/>
      <use xlink:href="#ArialMT-20" transform="translate(744.726562 0)"/>
      <use xlink:href="#ArialMT-3b3" transform="translate(772.509766 0)"/>
      <use xlink:href="#ArialMT-28" transform="translate(822.509766 0)"/>
      <use xlink:href="#ArialMT-74" transform="translate(855.810547 0)"/>
      <use xlink:href="#ArialMT-29" transform="translate(883.59375 0)"/>
     </g>
    </g>
   </g>
   <g id="patch_9">
    <path d="M 66.633212 312.28 
L 176.495609 312.28 
L 176.495609 166.330504 
L 66.633212 166.330504 
z
" clip-path="url(#pd8a161153a)" style="fill: #c6dbef; opacity: 0.4"/>
   </g>
   <g id="patch_10">
    <path d="M 176.495609 312.28 
L 322.978805 312.28 
L 322.978805 166.330504 
L 176.495609 166.330504 
z
" clip-path="url(#pd8a161153a)" style="fill: #fdd0a2; opacity: 0.4"/>
   </g>
   <g id="patch_11">
    <path d="M 322.978805 312.28 
L 432.841202 312.28 
L 432.841202 166.330504 
L 322.978805 166.330504 
z
" clip-path="url(#pd8a161153a)" style="fill: #c7e9c0; opacity: 0.4"/>
   </g>
   <g id="line2d_33">
    <path d="M 66.633212 305.645932 
L 68.100979 290.587896 
L 68.834863 286.183554 
L 69.568747 283.058501 
L 70.302631 280.634393 
L 71.770398 276.97877 
L 73.238166 274.247844 
L 74.705933 272.066724 
L 76.173701 270.250459 
L 78.375352 267.991956 
L 80.577003 266.121546 
L 82.778654 264.524717 
L 85.714189 262.703269 
L 88.649724 261.140842 
L 92.319143 259.454739 
L 96.722446 257.719639 
L 101.125748 256.21704 
L 106.262934 254.683329 
L 112.134004 253.148918 
L 119.472842 251.475605 
L 127.545563 249.868382 
L 137.086052 248.201173 
L 148.094308 246.506994 
L 161.304215 244.708585 
L 176.715774 242.839409 
L 195.796752 240.756668 
L 220.748799 238.270247 
L 315.419802 229.068119 
L 333.033012 227.019319 
L 347.710687 225.096412 
L 360.186711 223.236559 
L 370.461084 221.48425 
L 379.267688 219.76109 
L 386.606526 218.110985 
L 393.21148 216.39821 
L 399.08255 214.627529 
L 403.485852 213.090761 
L 407.889155 211.309449 
L 411.558573 209.570334 
L 414.494108 207.95042 
L 417.429643 206.049976 
L 419.631295 204.371386 
L 421.832946 202.387453 
L 423.300713 200.831081 
L 424.768481 199.014816 
L 426.236248 196.833695 
L 427.704016 194.10277 
L 428.4379 192.427919 
L 429.171783 190.447147 
L 429.905667 188.023039 
L 430.639551 184.897985 
L 431.373435 180.493644 
L 432.107318 172.964572 
L 432.107318 172.964572 
" clip-path="url(#pd8a161153a)" style="fill: none; stroke: #4c72b0; stroke-width: 2; stroke-linecap: round"/>
   </g>
   <g id="line2d_34">
    <path d="M 66.633212 255.498272 
L 80.577003 255.082049 
L 128.279447 253.501544 
L 170.11082 251.896729 
L 206.071124 250.29793 
L 236.894241 248.711067 
L 263.314056 247.137907 
L 286.064453 245.57268 
L 305.879314 243.997399 
L 323.492524 242.375195 
L 338.170199 240.809592 
L 351.380106 239.177198 
L 362.388362 237.600194 
L 371.928851 236.019641 
L 380.001572 234.475277 
L 387.34041 232.850972 
L 393.945363 231.147219 
L 399.08255 229.608453 
L 403.485852 228.090152 
L 407.889155 226.324545 
L 411.558573 224.596344 
L 414.494108 222.983647 
L 417.429643 221.088913 
L 419.631295 219.413415 
L 421.832946 217.431189 
L 423.300713 215.87482 
L 424.768481 214.057075 
L 426.236248 211.871805 
L 427.704016 209.130945 
L 428.4379 207.44637 
L 429.171783 205.448964 
L 429.905667 202.993402 
L 430.639551 199.797954 
L 431.373435 195.174791 
L 432.107318 184.257911 
L 432.107318 184.257911 
" clip-path="url(#pd8a161153a)" style="fill: none; stroke: #dd8452; stroke-width: 2; stroke-linecap: round"/>
   </g>
   <g id="line2d_35">
    <path d="M 66.633212 230.547413 
L 68.834863 230.492858 
L 432.841202 230.438575 
L 432.841202 230.438575 
" clip-path="url(#pd8a161153a)" style="fill: none; stroke: #55a868; stroke-width: 2; stroke-linecap: round"/>
   </g>
   <g id="line2d_36">
    <path d="M 66.633212 277.239467 
L 68.100979 276.91394 
L 118.005074 262.329805 
L 146.62654 254.178519 
L 167.909169 248.339172 
L 184.788495 243.931024 
L 199.46617 240.328192 
L 211.942194 237.484547 
L 223.684334 235.03018 
L 234.69259 232.952091 
L 245.700846 231.108493 
L 255.975219 229.607624 
L 266.249591 228.318242 
L 277.257848 227.161256 
L 288.999988 226.16157 
L 301.476011 225.330792 
L 315.419802 224.635433 
L 331.565245 224.068372 
L 350.646222 223.633098 
L 374.864386 223.314208 
L 409.356922 223.101498 
L 432.841202 222.92947 
L 432.841202 222.92947 
" clip-path="url(#pd8a161153a)" style="fill: none; stroke: #c44e52; stroke-width: 2; stroke-linecap: round"/>
   </g>
   <g id="patch_12">
    <path d="M 48.322813 312.28 
L 48.322813 166.330504 
" style="fill: none; stroke: #cccccc; stroke-width: 0.8; stroke-linejoin: miter; stroke-linecap: square"/>
   </g>
   <g id="patch_13">
    <path d="M 48.322812 312.28 
L 451.151602 312.28 
" style="fill: none; stroke: #cccccc; stroke-width: 0.8; stroke-linejoin: miter; stroke-linecap: square"/>
   </g>
  </g>
 </g>
 <defs>
  <clipPath id="p930782e892">
   <rect x="48.322813" y="7.2" width="402.828789" height="145.949496"/>
  </clipPath>
  <clipPath id="pd8a161153a">
   <rect x="48.322813" y="166.330504" width="402.828789" height="145.949496"/>
  </clipPath>
 </defs>
</svg>
