<?xml version="1.0" encoding="utf-8" standalone="no"?>
<!DOCTYPE svg PUBLIC "-//W3C//DTD SVG 1.1//EN"
  "http://www.w3.org/Graphics/SVG/1.1/DTD/svg11.dtd">
<svg xmlns:xlink="http://www.w3.org/1999/xlink" width="566.832813pt" height="205.780781pt" viewBox="0 0 566.832813 205.780781" xmlns="http://www.w3.org/2000/svg" version="1.1">
 <metadata>
  <rdf:RDF xmlns:dc="http://purl.org/dc/elements/1.1/" xmlns:cc="http://creativecommons.org/ns#" xmlns:rdf="http://www.w3.org/1999/02/22-rdf-syntax-ns#">
   <cc:Work>
    <dc:type rdf:resource="http://purl.org/dc/dcmitype/StillImage"/>
    <dc:date>2025-09-07T10:16:16.776033</dc:date>
    <dc:format>image/svg+xml</dc:format>
    <dc:creator>
     <cc:Agent>
      <dc:title>Matplotlib v3.10.0, https://matplotlib.org/</dc:title>
     </cc:Agent>
    </dc:creator>
   </cc:Work>
  </rdf:RDF>
 </metadata>
 <defs>
  <style type="text/css">*{stroke-linejoin: round; stroke-linecap: butt}</style>
 </defs>
 <g id="figure_1">
  <g id="patch_1">
   <path d="M 0 205.780781 
L 566.832813 205.780781 
L 566.832813 0 
L 0 0 
z
" style="fill: #ffffff"/>
  </g>
  <g id="axes_1">
   <g id="patch_2">
    <path d="M 42.422812 168.375625 
L 295.087812 168.375625 
L 295.087812 21.935625 
L 42.422812 21.935625 
z
" style="fill: #ffffff"/>
   </g>
   <g id="matplotlib.axis_1">
    <g id="xtick_1">
     <g id="line2d_1">
      <path d="M 53.907585 168.375625 
L 53.907585 21.935625 
" clip-path="url(#p2b423231e3)" style="fill: none; stroke: #cccccc; stroke-width: 0.8; stroke-linecap: round"/>
     </g>
     <g id="text_1">
      <!-- 0.0 -->
      <g style="fill: #262626" transform="translate(46.957585 182.533437) scale(0.1 -0.1)">
       <defs>
        <path id="ArialMT-30" d="M 266 2259 
Q 266 3072 433 3567 
Q 600 4063 929 4331 
Q 1259 4600 1759 4600 
Q 2128 4600 2406 4451 
Q 2684 4303 2865 4023 
Q 3047 3744 3150 3342 
Q 3253 2941 3253 2259 
Q 3253 1453 3087 958 
Q 2922 463 2592 192 
Q 2263 -78 1759 -78 
Q 1097 -78 719 397 
Q 266 969 266 2259 
z
M 844 2259 
Q 844 1131 1108 757 
Q 1372 384 1759 384 
Q 2147 384 2411 759 
Q 2675 1134 2675 2259 
Q 2675 3391 2411 3762 
Q 2147 4134 1753 4134 
Q 1366 4134 1134 3806 
Q 844 3388 844 2259 
z
" transform="scale(0.015625)"/>
        <path id="ArialMT-2e" d="M 581 0 
L 581 641 
L 1222 641 
L 1222 0 
L 581 0 
z
" transform="scale(0.015625)"/>
       </defs>
       <use xlink:href="#ArialMT-30"/>
       <use xlink:href="#ArialMT-2e" transform="translate(55.615234 0)"/>
       <use xlink:href="#ArialMT-30" transform="translate(83.398438 0)"/>
      </g>
     </g>
    </g>
    <g id="xtick_2">
     <g id="line2d_2">
      <path d="M 99.846676 168.375625 
L 99.846676 21.935625 
" clip-path="url(#p2b423231e3)" style="fill: none; stroke: #cccccc; stroke-width: 0.8; stroke-linecap: round"/>
     </g>
     <g id="text_2">
      <!-- 0.2 -->
      <g style="fill: #262626" transform="translate(92.896676 182.533437) scale(0.1 -0.1)">
       <defs>
        <path id="ArialMT-32" d="M 3222 541 
L 3222 0 
L 194 0 
Q 188 203 259 391 
Q 375 700 629 1000 
Q 884 1300 1366 1694 
Q 2113 2306 2375 2664 
Q 2638 3022 2638 3341 
Q 2638 3675 2398 3904 
Q 2159 4134 1775 4134 
Q 1369 4134 1125 3890 
Q 881 3647 878 3216 
L 300 3275 
Q 359 3922 746 4261 
Q 1134 4600 1788 4600 
Q 2447 4600 2831 4234 
Q 3216 3869 3216 3328 
Q 3216 3053 3103 2787 
Q 2991 2522 2730 2228 
Q 2469 1934 1863 1422 
Q 1356 997 1212 845 
Q 1069 694 975 541 
L 3222 541 
z
" transform="scale(0.015625)"/>
       </defs>
       <use xlink:href="#ArialMT-30"/>
       <use xlink:href="#ArialMT-2e" transform="translate(55.615234 0)"/>
       <use xlink:href="#ArialMT-32" transform="translate(83.398438 0)"/>
      </g>
     </g>
    </g>
    <g id="xtick_3">
     <g id="line2d_3">
      <path d="M 145.785767 168.375625 
L 145.785767 21.935625 
" clip-path="url(#p2b423231e3)" style="fill: none; stroke: #cccccc; stroke-width: 0.8; stroke-linecap: round"/>
     </g>
     <g id="text_3">
      <!-- 0.4 -->
      <g style="fill: #262626" transform="translate(138.835767 182.533437) scale(0.1 -0.1)">
       <defs>
        <path id="ArialMT-34" d="M 2069 0 
L 2069 1097 
L 81 1097 
L 81 1613 
L 2172 4581 
L 2631 4581 
L 2631 1613 
L 3250 1613 
L 3250 1097 
L 2631 1097 
L 2631 0 
L 2069 0 
z
M 2069 1613 
L 2069 3678 
L 634 1613 
L 2069 1613 
z
" transform="scale(0.015625)"/>
       </defs>
       <use xlink:href="#ArialMT-30"/>
       <use xlink:href="#ArialMT-2e" transform="translate(55.615234 0)"/>
       <use xlink:href="#ArialMT-34" transform="translate(83.398438 0)"/>
      </g>
     </g>
    </g>
    <g id="xtick_4">
     <g id="line2d_4">
      <path d="M 191.724858 168.375625 
L 191.724858 21.935625 
" clip-path="url(#p2b423231e3)" style="fill: none; stroke: #cccccc; stroke-width: 0.8; stroke-linecap: round"/>
     </g>
     <g id="text_4">
      <!-- 0.6 -->
      <g style="fill: #262626" transform="translate(184.774858 182.533437) scale(0.1 -0.1)">
       <defs>
        <path id="ArialMT-36" d="M 3184 3459 
L 2625 3416 
Q 2550 3747 2413 3897 
Q 2184 4138 1850 4138 
Q 1581 4138 1378 3988 
Q 1113 3794 959 3422 
Q 806 3050 800 2363 
Q 1003 2672 1297 2822 
Q 1591 2972 1913 2972 
Q 2475 2972 2870 2558 
Q 3266 2144 3266 1488 
Q 3266 1056 3080 686 
Q 2894 316 2569 119 
Q 2244 -78 1831 -78 
Q 1128 -78 684 439 
Q 241 956 241 2144 
Q 241 3472 731 4075 
Q 1159 4600 1884 4600 
Q 2425 4600 2770 4297 
Q 3116 3994 3184 3459 
z
M 888 1484 
Q 888 1194 1011 928 
Q 1134 663 1356 523 
Q 1578 384 1822 384 
Q 2178 384 2434 671 
Q 2691 959 2691 1453 
Q 2691 1928 2437 2201 
Q 2184 2475 1800 2475 
Q 1419 2475 1153 2201 
Q 888 1928 888 1484 
z
" transform="scale(0.015625)"/>
       </defs>
       <use xlink:href="#ArialMT-30"/>
       <use xlink:href="#ArialMT-2e" transform="translate(55.615234 0)"/>
       <use xlink:href="#ArialMT-36" transform="translate(83.398438 0)"/>
      </g>
     </g>
    </g>
    <g id="xtick_5">
     <g id="line2d_5">
      <path d="M 237.663949 168.375625 
L 237.663949 21.935625 
" clip-path="url(#p2b423231e3)" style="fill: none; stroke: #cccccc; stroke-width: 0.8; stroke-linecap: round"/>
     </g>
     <g id="text_5">
      <!-- 0.8 -->
      <g style="fill: #262626" transform="translate(230.713949 182.533437) scale(0.1 -0.1)">
       <defs>
        <path id="ArialMT-38" d="M 1131 2484 
Q 781 2613 612 2850 
Q 444 3088 444 3419 
Q 444 3919 803 4259 
Q 1163 4600 1759 4600 
Q 2359 4600 2725 4251 
Q 3091 3903 3091 3403 
Q 3091 3084 2923 2848 
Q 2756 2613 2416 2484 
Q 2838 2347 3058 2040 
Q 3278 1734 3278 1309 
Q 3278 722 2862 322 
Q 2447 -78 1769 -78 
Q 1091 -78 675 323 
Q 259 725 259 1325 
Q 259 1772 486 2073 
Q 713 2375 1131 2484 
z
M 1019 3438 
Q 1019 3113 1228 2906 
Q 1438 2700 1772 2700 
Q 2097 2700 2305 2904 
Q 2513 3109 2513 3406 
Q 2513 3716 2298 3927 
Q 2084 4138 1766 4138 
Q 1444 4138 1231 3931 
Q 1019 3725 1019 3438 
z
M 838 1322 
Q 838 1081 952 856 
Q 1066 631 1291 507 
Q 1516 384 1775 384 
Q 2178 384 2440 643 
Q 2703 903 2703 1303 
Q 2703 1709 2433 1975 
Q 2163 2241 1756 2241 
Q 1359 2241 1098 1978 
Q 838 1716 838 1322 
z
" transform="scale(0.015625)"/>
       </defs>
       <use xlink:href="#ArialMT-30"/>
       <use xlink:href="#ArialMT-2e" transform="translate(55.615234 0)"/>
       <use xlink:href="#ArialMT-38" transform="translate(83.398438 0)"/>
      </g>
     </g>
    </g>
    <g id="xtick_6">
     <g id="line2d_6">
      <path d="M 283.60304 168.375625 
L 283.60304 21.935625 
" clip-path="url(#p2b423231e3)" style="fill: none; stroke: #cccccc; stroke-width: 0.8; stroke-linecap: round"/>
     </g>
     <g id="text_6">
      <!-- 1.0 -->
      <g style="fill: #262626" transform="translate(276.65304 182.533437) scale(0.1 -0.1)">
       <defs>
        <path id="ArialMT-31" d="M 2384 0 
L 1822 0 
L 1822 3584 
Q 1619 3391 1289 3197 
Q 959 3003 697 2906 
L 697 3450 
Q 1169 3672 1522 3987 
Q 1875 4303 2022 4600 
L 2384 4600 
L 2384 0 
z
" transform="scale(0.015625)"/>
       </defs>
       <use xlink:href="#ArialMT-31"/>
       <use xlink:href="#ArialMT-2e" transform="translate(55.615234 0)"/>
       <use xlink:href="#ArialMT-30" transform="translate(83.398438 0)"/>
      </g>
     </g>
    </g>
    <g id="text_7">
     <!-- Normalized Time -->
     <g style="fill: #262626" transform="translate(127.495859 196.394531) scale(0.11 -0.11)">
      <defs>
       <path id="ArialMT-4e" d="M 488 0 
L 488 4581 
L 1109 4581 
L 3516 984 
L 3516 4581 
L 4097 4581 
L 4097 0 
L 3475 0 
L 1069 3600 
L 1069 0 
L 488 0 
z
" transform="scale(0.015625)"/>
       <path id="ArialMT-6f" d="M 213 1659 
Q 213 2581 725 3025 
Q 1153 3394 1769 3394 
Q 2453 3394 2887 2945 
Q 3322 2497 3322 1706 
Q 3322 1066 3130 698 
Q 2938 331 2570 128 
Q 2203 -75 1769 -75 
Q 1072 -75 642 372 
Q 213 819 213 1659 
z
M 791 1659 
Q 791 1022 1069 705 
Q 1347 388 1769 388 
Q 2188 388 2466 706 
Q 2744 1025 2744 1678 
Q 2744 2294 2464 2611 
Q 2184 2928 1769 2928 
Q 1347 2928 1069 2612 
Q 791 2297 791 1659 
z
" transform="scale(0.015625)"/>
       <path id="ArialMT-72" d="M 416 0 
L 416 3319 
L 922 3319 
L 922 2816 
Q 1116 3169 1280 3281 
Q 1444 3394 1641 3394 
Q 1925 3394 2219 3213 
L 2025 2691 
Q 1819 2813 1613 2813 
Q 1428 2813 1281 2702 
Q 1134 2591 1072 2394 
Q 978 2094 978 1738 
L 978 0 
L 416 0 
z
" transform="scale(0.015625)"/>
       <path id="ArialMT-6d" d="M 422 0 
L 422 3319 
L 925 3319 
L 925 2853 
Q 1081 3097 1340 3245 
Q 1600 3394 1931 3394 
Q 2300 3394 2536 3241 
Q 2772 3088 2869 2813 
Q 3263 3394 3894 3394 
Q 4388 3394 4653 3120 
Q 4919 2847 4919 2278 
L 4919 0 
L 4359 0 
L 4359 2091 
Q 4359 2428 4304 2576 
Q 4250 2725 4106 2815 
Q 3963 2906 3769 2906 
Q 3419 2906 3187 2673 
Q 2956 2441 2956 1928 
L 2956 0 
L 2394 0 
L 2394 2156 
Q 2394 2531 2256 2718 
Q 2119 2906 1806 2906 
Q 1569 2906 1367 2781 
Q 1166 2656 1075 2415 
Q 984 2175 984 1722 
L 984 0 
L 422 0 
z
" transform="scale(0.015625)"/>
       <path id="ArialMT-61" d="M 2588 409 
Q 2275 144 1986 34 
Q 1697 -75 1366 -75 
Q 819 -75 525 192 
Q 231 459 231 875 
Q 231 1119 342 1320 
Q 453 1522 633 1644 
Q 813 1766 1038 1828 
Q 1203 1872 1538 1913 
Q 2219 1994 2541 2106 
Q 2544 2222 2544 2253 
Q 2544 2597 2384 2738 
Q 2169 2928 1744 2928 
Q 1347 2928 1158 2789 
Q 969 2650 878 2297 
L 328 2372 
Q 403 2725 575 2942 
Q 747 3159 1072 3276 
Q 1397 3394 1825 3394 
Q 2250 3394 2515 3294 
Q 2781 3194 2906 3042 
Q 3031 2891 3081 2659 
Q 3109 2516 3109 2141 
L 3109 1391 
Q 3109 606 3145 398 
Q 3181 191 3288 0 
L 2700 0 
Q 2613 175 2588 409 
z
M 2541 1666 
Q 2234 1541 1622 1453 
Q 1275 1403 1131 1340 
Q 988 1278 909 1158 
Q 831 1038 831 891 
Q 831 666 1001 516 
Q 1172 366 1500 366 
Q 1825 366 2078 508 
Q 2331 650 2450 897 
Q 2541 1088 2541 1459 
L 2541 1666 
z
" transform="scale(0.015625)"/>
       <path id="ArialMT-6c" d="M 409 0 
L 409 4581 
L 972 4581 
L 972 0 
L 409 0 
z
" transform="scale(0.015625)"/>
       <path id="ArialMT-69" d="M 425 3934 
L 425 4581 
L 988 4581 
L 988 3934 
L 425 3934 
z
M 425 0 
L 425 3319 
L 988 3319 
L 988 0 
L 425 0 
z
" transform="scale(0.015625)"/>
       <path id="ArialMT-7a" d="M 125 0 
L 125 456 
L 2238 2881 
Q 1878 2863 1603 2863 
L 250 2863 
L 250 3319 
L 2963 3319 
L 2963 2947 
L 1166 841 
L 819 456 
Q 1197 484 1528 484 
L 3063 484 
L 3063 0 
L 125 0 
z
" transform="scale(0.015625)"/>
       <path id="ArialMT-65" d="M 2694 1069 
L 3275 997 
Q 3138 488 2766 206 
Q 2394 -75 1816 -75 
Q 1088 -75 661 373 
Q 234 822 234 1631 
Q 234 2469 665 2931 
Q 1097 3394 1784 3394 
Q 2450 3394 2872 2941 
Q 3294 2488 3294 1666 
Q 3294 1616 3291 1516 
L 816 1516 
Q 847 969 1125 678 
Q 1403 388 1819 388 
Q 2128 388 2347 550 
Q 2566 713 2694 1069 
z
M 847 1978 
L 2700 1978 
Q 2663 2397 2488 2606 
Q 2219 2931 1791 2931 
Q 1403 2931 1139 2672 
Q 875 2413 847 1978 
z
" transform="scale(0.015625)"/>
       <path id="ArialMT-64" d="M 2575 0 
L 2575 419 
Q 2259 -75 1647 -75 
Q 1250 -75 917 144 
Q 584 363 401 755 
Q 219 1147 219 1656 
Q 219 2153 384 2558 
Q 550 2963 881 3178 
Q 1213 3394 1622 3394 
Q 1922 3394 2156 3267 
Q 2391 3141 2538 2938 
L 2538 4581 
L 3097 4581 
L 3097 0 
L 2575 0 
z
M 797 1656 
Q 797 1019 1065 703 
Q 1334 388 1700 388 
Q 2069 388 2326 689 
Q 2584 991 2584 1609 
Q 2584 2291 2321 2609 
Q 2059 2928 1675 2928 
Q 1300 2928 1048 2622 
Q 797 2316 797 1656 
z
" transform="scale(0.015625)"/>
       <path id="ArialMT-20" transform="scale(0.015625)"/>
       <path id="ArialMT-54" d="M 1659 0 
L 1659 4041 
L 150 4041 
L 150 4581 
L 3781 4581 
L 3781 4041 
L 2266 4041 
L 2266 0 
L 1659 0 
z
" transform="scale(0.015625)"/>
      </defs>
      <use xlink:href="#ArialMT-4e"/>
      <use xlink:href="#ArialMT-6f" transform="translate(72.216797 0)"/>
      <use xlink:href="#ArialMT-72" transform="translate(127.832031 0)"/>
      <use xlink:href="#ArialMT-6d" transform="translate(161.132812 0)"/>
      <use xlink:href="#ArialMT-61" transform="translate(244.433594 0)"/>
      <use xlink:href="#ArialMT-6c" transform="translate(300.048828 0)"/>
      <use xlink:href="#ArialMT-69" transform="translate(322.265625 0)"/>
      <use xlink:href="#ArialMT-7a" transform="translate(344.482422 0)"/>
      <use xlink:href="#ArialMT-65" transform="translate(394.482422 0)"/>
      <use xlink:href="#ArialMT-64" transform="translate(450.097656 0)"/>
      <use xlink:href="#ArialMT-20" transform="translate(505.712891 0)"/>
      <use xlink:href="#ArialMT-54" transform="translate(531.746094 0)"/>
      <use xlink:href="#ArialMT-69" transform="translate(589.080078 0)"/>
      <use xlink:href="#ArialMT-6d" transform="translate(611.296875 0)"/>
      <use xlink:href="#ArialMT-65" transform="translate(694.597656 0)"/>
     </g>
    </g>
   </g>
   <g id="matplotlib.axis_2">
    <g id="ytick_1">
     <g id="line2d_7">
      <path d="M 42.422812 161.719261 
L 295.087812 161.719261 
" clip-path="url(#p2b423231e3)" style="fill: none; stroke: #cccccc; stroke-width: 0.8; stroke-linecap: round"/>
     </g>
     <g id="text_8">
      <!-- 0.0 -->
      <g style="fill: #262626" transform="translate(21.522813 165.298168) scale(0.1 -0.1)">
       <use xlink:href="#ArialMT-30"/>
       <use xlink:href="#ArialMT-2e" transform="translate(55.615234 0)"/>
       <use xlink:href="#ArialMT-30" transform="translate(83.398438 0)"/>
      </g>
     </g>
    </g>
    <g id="ytick_2">
     <g id="line2d_8">
      <path d="M 42.422812 135.093807 
L 295.087812 135.093807 
" clip-path="url(#p2b423231e3)" style="fill: none; stroke: #cccccc; stroke-width: 0.8; stroke-linecap: round"/>
     </g>
     <g id="text_9">
      <!-- 0.2 -->
      <g style="fill: #262626" transform="translate(21.522813 138.672713) scale(0.1 -0.1)">
       <use xlink:href="#ArialMT-30"/>
       <use xlink:href="#ArialMT-2e" transform="translate(55.615234 0)"/>
       <use xlink:href="#ArialMT-32" transform="translate(83.398438 0)"/>
      </g>
     </g>
    </g>
    <g id="ytick_3">
     <g id="line2d_9">
      <path d="M 42.422812 108.468352 
L 295.087812 108.468352 
" clip-path="url(#p2b423231e3)" style="fill: none; stroke: #cccccc; stroke-width: 0.8; stroke-linecap: round"/>
     </g>
     <g id="text_10">
      <!-- 0.4 -->
      <g style="fill: #262626" transform="translate(21.522813 112.047259) scale(0.1 -0.1)">
       <use xlink:href="#ArialMT-30"/>
       <use xlink:href="#ArialMT-2e" transform="translate(55.615234 0)"/>
       <use xlink:href="#ArialMT-34" transform="translate(83.398438 0)"/>
      </g>
     </g>
    </g>
    <g id="ytick_4">
     <g id="line2d_10">
      <path d="M 42.422812 81.842898 
L 295.087812 81.842898 
" clip-path="url(#p2b423231e3)" style="fill: none; stroke: #cccccc; stroke-width: 0.8; stroke-linecap: round"/>
     </g>
     <g id="text_11">
      <!-- 0.6 -->
      <g style="fill: #262626" transform="translate(21.522813 85.421804) scale(0.1 -0.1)">
       <use xlink:href="#ArialMT-30"/>
       <use xlink:href="#ArialMT-2e" transform="translate(55.615234 0)"/>
       <use xlink:href="#ArialMT-36" transform="translate(83.398438 0)"/>
      </g>
     </g>
    </g>
    <g id="ytick_5">
     <g id="line2d_11">
      <path d="M 42.422812 55.217443 
L 295.087812 55.217443 
" clip-path="url(#p2b423231e3)" style="fill: none; stroke: #cccccc; stroke-width: 0.8; stroke-linecap: round"/>
     </g>
     <g id="text_12">
      <!-- 0.8 -->
      <g style="fill: #262626" transform="translate(21.522813 58.796349) scale(0.1 -0.1)">
       <use xlink:href="#ArialMT-30"/>
       <use xlink:href="#ArialMT-2e" transform="translate(55.615234 0)"/>
       <use xlink:href="#ArialMT-38" transform="translate(83.398438 0)"/>
      </g>
     </g>
    </g>
    <g id="ytick_6">
     <g id="line2d_12">
      <path d="M 42.422812 28.591989 
L 295.087812 28.591989 
" clip-path="url(#p2b423231e3)" style="fill: none; stroke: #cccccc; stroke-width: 0.8; stroke-linecap: round"/>
     </g>
     <g id="text_13">
      <!-- 1.0 -->
      <g style="fill: #262626" transform="translate(21.522813 32.170895) scale(0.1 -0.1)">
       <use xlink:href="#ArialMT-31"/>
       <use xlink:href="#ArialMT-2e" transform="translate(55.615234 0)"/>
       <use xlink:href="#ArialMT-30" transform="translate(83.398438 0)"/>
      </g>
     </g>
    </g>
    <g id="text_14">
     <!-- Learning Rate η(t) -->
     <g style="fill: #262626" transform="translate(15.207656 139.482187) rotate(-90) scale(0.11 -0.11)">
      <defs>
       <path id="ArialMT-4c" d="M 469 0 
L 469 4581 
L 1075 4581 
L 1075 541 
L 3331 541 
L 3331 0 
L 469 0 
z
" transform="scale(0.015625)"/>
       <path id="ArialMT-6e" d="M 422 0 
L 422 3319 
L 928 3319 
L 928 2847 
Q 1294 3394 1984 3394 
Q 2284 3394 2536 3286 
Q 2788 3178 2913 3003 
Q 3038 2828 3088 2588 
Q 3119 2431 3119 2041 
L 3119 0 
L 2556 0 
L 2556 2019 
Q 2556 2363 2490 2533 
Q 2425 2703 2258 2804 
Q 2091 2906 1866 2906 
Q 1506 2906 1245 2678 
Q 984 2450 984 1813 
L 984 0 
L 422 0 
z
" transform="scale(0.015625)"/>
       <path id="ArialMT-67" d="M 319 -275 
L 866 -356 
Q 900 -609 1056 -725 
Q 1266 -881 1628 -881 
Q 2019 -881 2231 -725 
Q 2444 -569 2519 -288 
Q 2563 -116 2559 434 
Q 2191 0 1641 0 
Q 956 0 581 494 
Q 206 988 206 1678 
Q 206 2153 378 2554 
Q 550 2956 876 3175 
Q 1203 3394 1644 3394 
Q 2231 3394 2613 2919 
L 2613 3319 
L 3131 3319 
L 3131 450 
Q 3131 -325 2973 -648 
Q 2816 -972 2473 -1159 
Q 2131 -1347 1631 -1347 
Q 1038 -1347 672 -1080 
Q 306 -813 319 -275 
z
M 784 1719 
Q 784 1066 1043 766 
Q 1303 466 1694 466 
Q 2081 466 2343 764 
Q 2606 1063 2606 1700 
Q 2606 2309 2336 2618 
Q 2066 2928 1684 2928 
Q 1309 2928 1046 2623 
Q 784 2319 784 1719 
z
" transform="scale(0.015625)"/>
       <path id="ArialMT-52" d="M 503 0 
L 503 4581 
L 2534 4581 
Q 3147 4581 3465 4457 
Q 3784 4334 3975 4021 
Q 4166 3709 4166 3331 
Q 4166 2844 3850 2509 
Q 3534 2175 2875 2084 
Q 3116 1969 3241 1856 
Q 3506 1613 3744 1247 
L 4541 0 
L 3778 0 
L 3172 953 
Q 2906 1366 2734 1584 
Q 2563 1803 2427 1890 
Q 2291 1978 2150 2013 
Q 2047 2034 1813 2034 
L 1109 2034 
L 1109 0 
L 503 0 
z
M 1109 2559 
L 2413 2559 
Q 2828 2559 3062 2645 
Q 3297 2731 3419 2920 
Q 3541 3109 3541 3331 
Q 3541 3656 3305 3865 
Q 3069 4075 2559 4075 
L 1109 4075 
L 1109 2559 
z
" transform="scale(0.015625)"/>
       <path id="ArialMT-74" d="M 1650 503 
L 1731 6 
Q 1494 -44 1306 -44 
Q 1000 -44 831 53 
Q 663 150 594 308 
Q 525 466 525 972 
L 525 2881 
L 113 2881 
L 113 3319 
L 525 3319 
L 525 4141 
L 1084 4478 
L 1084 3319 
L 1650 3319 
L 1650 2881 
L 1084 2881 
L 1084 941 
Q 1084 700 1114 631 
Q 1144 563 1211 522 
Q 1278 481 1403 481 
Q 1497 481 1650 503 
z
" transform="scale(0.015625)"/>
       <path id="ArialMT-3b7" d="M 434 0 
L 434 3319 
L 941 3319 
L 941 2847 
Q 1306 3394 1997 3394 
Q 2403 3394 2678 3219 
Q 2953 3044 3042 2786 
Q 3131 2528 3131 2041 
L 3131 -1272 
L 2569 -1272 
L 2569 2019 
Q 2569 2481 2406 2693 
Q 2244 2906 1872 2906 
Q 1506 2906 1251 2672 
Q 997 2438 997 1813 
L 997 0 
L 434 0 
z
" transform="scale(0.015625)"/>
       <path id="ArialMT-28" d="M 1497 -1347 
Q 1031 -759 709 28 
Q 388 816 388 1659 
Q 388 2403 628 3084 
Q 909 3875 1497 4659 
L 1900 4659 
Q 1522 4009 1400 3731 
Q 1209 3300 1100 2831 
Q 966 2247 966 1656 
Q 966 153 1900 -1347 
L 1497 -1347 
z
" transform="scale(0.015625)"/>
       <path id="ArialMT-29" d="M 791 -1347 
L 388 -1347 
Q 1322 153 1322 1656 
Q 1322 2244 1188 2822 
Q 1081 3291 891 3722 
Q 769 4003 388 4659 
L 791 4659 
Q 1378 3875 1659 3084 
Q 1900 2403 1900 1659 
Q 1900 816 1576 28 
Q 1253 -759 791 -1347 
z
" transform="scale(0.015625)"/>
      </defs>
      <use xlink:href="#ArialMT-4c"/>
      <use xlink:href="#ArialMT-65" transform="translate(55.615234 0)"/>
      <use xlink:href="#ArialMT-61" transform="translate(111.230469 0)"/>
      <use xlink:href="#ArialMT-72" transform="translate(166.845703 0)"/>
      <use xlink:href="#ArialMT-6e" transform="translate(200.146484 0)"/>
      <use xlink:href="#ArialMT-69" transform="translate(255.761719 0)"/>
      <use xlink:href="#ArialMT-6e" transform="translate(277.978516 0)"/>
      <use xlink:href="#ArialMT-67" transform="translate(333.59375 0)"/>
      <use xlink:href="#ArialMT-20" transform="translate(389.208984 0)"/>
      <use xlink:href="#ArialMT-52" transform="translate(416.992188 0)"/>
      <use xlink:href="#ArialMT-61" transform="translate(489.208984 0)"/>
      <use xlink:href="#ArialMT-74" transform="translate(544.824219 0)"/>
      <use xlink:href="#ArialMT-65" transform="translate(572.607422 0)"/>
      <use xlink:href="#ArialMT-20" transform="translate(628.222656 0)"/>
      <use xlink:href="#ArialMT-3b7" transform="translate(656.005859 0)"/>
      <use xlink:href="#ArialMT-28" transform="translate(711.621094 0)"/>
      <use xlink:href="#ArialMT-74" transform="translate(744.921875 0)"/>
      <use xlink:href="#ArialMT-29" transform="translate(772.705078 0)"/>
     </g>
    </g>
   </g>
   <g id="line2d_13">
    <path d="M 53.907585 28.591989 
L 58.050389 28.698814 
L 62.193193 29.018947 
L 66.335997 29.551361 
L 70.4788 30.294346 
L 74.621604 31.245518 
L 79.224719 32.54281 
L 83.827835 34.088197 
L 88.43095 35.875555 
L 93.034065 37.897804 
L 97.637181 40.146929 
L 102.700608 42.872347 
L 107.764034 45.848418 
L 113.287773 49.364114 
L 118.811511 53.14105 
L 124.795561 57.502508 
L 131.239923 62.480503 
L 138.144596 68.094517 
L 145.969892 74.745819 
L 155.636434 83.276119 
L 170.366403 96.622251 
L 186.016995 110.725157 
L 195.223226 118.729272 
L 203.048522 125.244122 
L 209.953195 130.708906 
L 216.397556 135.524449 
L 222.381606 139.716149 
L 227.905344 143.32123 
L 233.429083 146.651527 
L 238.49251 149.446652 
L 243.555936 151.981499 
L 248.159052 154.049793 
L 252.762167 155.884726 
L 257.365282 157.479029 
L 261.968398 158.826382 
L 266.571513 159.921449 
L 270.714317 160.687696 
L 274.857121 161.243603 
L 278.999924 161.587386 
L 283.142728 161.717942 
L 283.60304 161.719261 
L 283.60304 161.719261 
" clip-path="url(#p2b423231e3)" style="fill: none; stroke: #1f77b4; stroke-width: 2; stroke-linecap: round"/>
   </g>
   <g id="patch_3">
    <path d="M 42.422812 168.375625 
L 42.422812 21.935625 
" style="fill: none; stroke: #cccccc; stroke-width: 0.8; stroke-linejoin: miter; stroke-linecap: square"/>
   </g>
   <g id="patch_4">
    <path d="M 42.422812 168.375625 
L 295.087812 168.375625 
" style="fill: none; stroke: #cccccc; stroke-width: 0.8; stroke-linejoin: miter; stroke-linecap: square"/>
   </g>
   <g id="text_15">
    <!-- Fixed-Horizon Cosine Schedule -->
    <g style="fill: #262626" transform="translate(84.385 15.935625) scale(0.12 -0.12)">
     <defs>
      <path id="ArialMT-46" d="M 525 0 
L 525 4581 
L 3616 4581 
L 3616 4041 
L 1131 4041 
L 1131 2622 
L 3281 2622 
L 3281 2081 
L 1131 2081 
L 1131 0 
L 525 0 
z
" transform="scale(0.015625)"/>
      <path id="ArialMT-78" d="M 47 0 
L 1259 1725 
L 138 3319 
L 841 3319 
L 1350 2541 
Q 1494 2319 1581 2169 
Q 1719 2375 1834 2534 
L 2394 3319 
L 3066 3319 
L 1919 1756 
L 3153 0 
L 2463 0 
L 1781 1031 
L 1600 1309 
L 728 0 
L 47 0 
z
" transform="scale(0.015625)"/>
      <path id="ArialMT-2d" d="M 203 1375 
L 203 1941 
L 1931 1941 
L 1931 1375 
L 203 1375 
z
" transform="scale(0.015625)"/>
      <path id="ArialMT-48" d="M 513 0 
L 513 4581 
L 1119 4581 
L 1119 2700 
L 3500 2700 
L 3500 4581 
L 4106 4581 
L 4106 0 
L 3500 0 
L 3500 2159 
L 1119 2159 
L 1119 0 
L 513 0 
z
" transform="scale(0.015625)"/>
      <path id="ArialMT-43" d="M 3763 1606 
L 4369 1453 
Q 4178 706 3683 314 
Q 3188 -78 2472 -78 
Q 1731 -78 1267 223 
Q 803 525 561 1097 
Q 319 1669 319 2325 
Q 319 3041 592 3573 
Q 866 4106 1370 4382 
Q 1875 4659 2481 4659 
Q 3169 4659 3637 4309 
Q 4106 3959 4291 3325 
L 3694 3184 
Q 3534 3684 3231 3912 
Q 2928 4141 2469 4141 
Q 1941 4141 1586 3887 
Q 1231 3634 1087 3207 
Q 944 2781 944 2328 
Q 944 1744 1114 1308 
Q 1284 872 1643 656 
Q 2003 441 2422 441 
Q 2931 441 3284 734 
Q 3638 1028 3763 1606 
z
" transform="scale(0.015625)"/>
      <path id="ArialMT-73" d="M 197 991 
L 753 1078 
Q 800 744 1014 566 
Q 1228 388 1613 388 
Q 2000 388 2187 545 
Q 2375 703 2375 916 
Q 2375 1106 2209 1216 
Q 2094 1291 1634 1406 
Q 1016 1563 777 1677 
Q 538 1791 414 1992 
Q 291 2194 291 2438 
Q 291 2659 392 2848 
Q 494 3038 669 3163 
Q 800 3259 1026 3326 
Q 1253 3394 1513 3394 
Q 1903 3394 2198 3281 
Q 2494 3169 2634 2976 
Q 2775 2784 2828 2463 
L 2278 2388 
Q 2241 2644 2061 2787 
Q 1881 2931 1553 2931 
Q 1166 2931 1000 2803 
Q 834 2675 834 2503 
Q 834 2394 903 2306 
Q 972 2216 1119 2156 
Q 1203 2125 1616 2013 
Q 2213 1853 2448 1751 
Q 2684 1650 2818 1456 
Q 2953 1263 2953 975 
Q 2953 694 2789 445 
Q 2625 197 2315 61 
Q 2006 -75 1616 -75 
Q 969 -75 630 194 
Q 291 463 197 991 
z
" transform="scale(0.015625)"/>
      <path id="ArialMT-53" d="M 288 1472 
L 859 1522 
Q 900 1178 1048 958 
Q 1197 738 1509 602 
Q 1822 466 2213 466 
Q 2559 466 2825 569 
Q 3091 672 3220 851 
Q 3350 1031 3350 1244 
Q 3350 1459 3225 1620 
Q 3100 1781 2813 1891 
Q 2628 1963 1997 2114 
Q 1366 2266 1113 2400 
Q 784 2572 623 2826 
Q 463 3081 463 3397 
Q 463 3744 659 4045 
Q 856 4347 1234 4503 
Q 1613 4659 2075 4659 
Q 2584 4659 2973 4495 
Q 3363 4331 3572 4012 
Q 3781 3694 3797 3291 
L 3216 3247 
Q 3169 3681 2898 3903 
Q 2628 4125 2100 4125 
Q 1550 4125 1298 3923 
Q 1047 3722 1047 3438 
Q 1047 3191 1225 3031 
Q 1400 2872 2139 2705 
Q 2878 2538 3153 2413 
Q 3553 2228 3743 1945 
Q 3934 1663 3934 1294 
Q 3934 928 3725 604 
Q 3516 281 3123 101 
Q 2731 -78 2241 -78 
Q 1619 -78 1198 103 
Q 778 284 539 648 
Q 300 1013 288 1472 
z
" transform="scale(0.015625)"/>
      <path id="ArialMT-63" d="M 2588 1216 
L 3141 1144 
Q 3050 572 2676 248 
Q 2303 -75 1759 -75 
Q 1078 -75 664 370 
Q 250 816 250 1647 
Q 250 2184 428 2587 
Q 606 2991 970 3192 
Q 1334 3394 1763 3394 
Q 2303 3394 2647 3120 
Q 2991 2847 3088 2344 
L 2541 2259 
Q 2463 2594 2264 2762 
Q 2066 2931 1784 2931 
Q 1359 2931 1093 2626 
Q 828 2322 828 1663 
Q 828 994 1084 691 
Q 1341 388 1753 388 
Q 2084 388 2306 591 
Q 2528 794 2588 1216 
z
" transform="scale(0.015625)"/>
      <path id="ArialMT-68" d="M 422 0 
L 422 4581 
L 984 4581 
L 984 2938 
Q 1378 3394 1978 3394 
Q 2347 3394 2619 3248 
Q 2891 3103 3008 2847 
Q 3125 2591 3125 2103 
L 3125 0 
L 2563 0 
L 2563 2103 
Q 2563 2525 2380 2717 
Q 2197 2909 1863 2909 
Q 1613 2909 1392 2779 
Q 1172 2650 1078 2428 
Q 984 2206 984 1816 
L 984 0 
L 422 0 
z
" transform="scale(0.015625)"/>
      <path id="ArialMT-75" d="M 2597 0 
L 2597 488 
Q 2209 -75 1544 -75 
Q 1250 -75 995 37 
Q 741 150 617 320 
Q 494 491 444 738 
Q 409 903 409 1263 
L 409 3319 
L 972 3319 
L 972 1478 
Q 972 1038 1006 884 
Q 1059 663 1231 536 
Q 1403 409 1656 409 
Q 1909 409 2131 539 
Q 2353 669 2445 892 
Q 2538 1116 2538 1541 
L 2538 3319 
L 3100 3319 
L 3100 0 
L 2597 0 
z
" transform="scale(0.015625)"/>
     </defs>
     <use xlink:href="#ArialMT-46"/>
     <use xlink:href="#ArialMT-69" transform="translate(61.083984 0)"/>
     <use xlink:href="#ArialMT-78" transform="translate(83.300781 0)"/>
     <use xlink:href="#ArialMT-65" transform="translate(133.300781 0)"/>
     <use xlink:href="#ArialMT-64" transform="translate(188.916016 0)"/>
     <use xlink:href="#ArialMT-2d" transform="translate(244.53125 0)"/>
     <use xlink:href="#ArialMT-48" transform="translate(277.832031 0)"/>
     <use xlink:href="#ArialMT-6f" transform="translate(350.048828 0)"/>
     <use xlink:href="#ArialMT-72" transform="translate(405.664062 0)"/>
     <use xlink:href="#ArialMT-69" transform="translate(438.964844 0)"/>
     <use xlink:href="#ArialMT-7a" transform="translate(461.181641 0)"/>
     <use xlink:href="#ArialMT-6f" transform="translate(511.181641 0)"/>
     <use xlink:href="#ArialMT-6e" transform="translate(566.796875 0)"/>
     <use xlink:href="#ArialMT-20" transform="translate(622.412109 0)"/>
     <use xlink:href="#ArialMT-43" transform="translate(650.195312 0)"/>
     <use xlink:href="#ArialMT-6f" transform="translate(722.412109 0)"/>
     <use xlink:href="#ArialMT-73" transform="translate(778.027344 0)"/>
     <use xlink:href="#ArialMT-69" transform="translate(828.027344 0)"/>
     <use xlink:href="#ArialMT-6e" transform="translate(850.244141 0)"/>
     <use xlink:href="#ArialMT-65" transform="translate(905.859375 0)"/>
     <use xlink:href="#ArialMT-20" transform="translate(961.474609 0)"/>
     <use xlink:href="#ArialMT-53" transform="translate(989.257812 0)"/>
     <use xlink:href="#ArialMT-63" transform="translate(1055.957031 0)"/>
     <use xlink:href="#ArialMT-68" transform="translate(1105.957031 0)"/>
     <use xlink:href="#ArialMT-65" transform="translate(1161.572266 0)"/>
     <use xlink:href="#ArialMT-64" transform="translate(1217.1875 0)"/>
     <use xlink:href="#ArialMT-75" transform="translate(1272.802734 0)"/>
     <use xlink:href="#ArialMT-6c" transform="translate(1328.417969 0)"/>
     <use xlink:href="#ArialMT-65" transform="translate(1350.634766 0)"/>
    </g>
   </g>
  </g>
  <g id="axes_2">
   <g id="patch_5">
    <path d="M 306.967813 168.375625 
L 559.632813 168.375625 
L 559.632813 21.935625 
L 306.967813 21.935625 
z
" style="fill: #ffffff"/>
   </g>
   <g id="matplotlib.axis_3">
    <g id="xtick_7">
     <g id="line2d_14">
      <path d="M 318.452585 168.375625 
L 318.452585 21.935625 
" clip-path="url(#pcc0af65922)" style="fill: none; stroke: #cccccc; stroke-width: 0.8; stroke-linecap: round"/>
     </g>
     <g id="text_16">
      <!-- 0.0 -->
      <g style="fill: #262626" transform="translate(311.502585 182.533437) scale(0.1 -0.1)">
       <use xlink:href="#ArialMT-30"/>
       <use xlink:href="#ArialMT-2e" transform="translate(55.615234 0)"/>
       <use xlink:href="#ArialMT-30" transform="translate(83.398438 0)"/>
      </g>
     </g>
    </g>
    <g id="xtick_8">
     <g id="line2d_15">
      <path d="M 364.391676 168.375625 
L 364.391676 21.935625 
" clip-path="url(#pcc0af65922)" style="fill: none; stroke: #cccccc; stroke-width: 0.8; stroke-linecap: round"/>
     </g>
     <g id="text_17">
      <!-- 0.2 -->
      <g style="fill: #262626" transform="translate(357.441676 182.533437) scale(0.1 -0.1)">
       <use xlink:href="#ArialMT-30"/>
       <use xlink:href="#ArialMT-2e" transform="translate(55.615234 0)"/>
       <use xlink:href="#ArialMT-32" transform="translate(83.398438 0)"/>
      </g>
     </g>
    </g>
    <g id="xtick_9">
     <g id="line2d_16">
      <path d="M 410.330767 168.375625 
L 410.330767 21.935625 
" clip-path="url(#pcc0af65922)" style="fill: none; stroke: #cccccc; stroke-width: 0.8; stroke-linecap: round"/>
     </g>
     <g id="text_18">
      <!-- 0.4 -->
      <g style="fill: #262626" transform="translate(403.380767 182.533437) scale(0.1 -0.1)">
       <use xlink:href="#ArialMT-30"/>
       <use xlink:href="#ArialMT-2e" transform="translate(55.615234 0)"/>
       <use xlink:href="#ArialMT-34" transform="translate(83.398438 0)"/>
      </g>
     </g>
    </g>
    <g id="xtick_10">
     <g id="line2d_17">
      <path d="M 456.269858 168.375625 
L 456.269858 21.935625 
" clip-path="url(#pcc0af65922)" style="fill: none; stroke: #cccccc; stroke-width: 0.8; stroke-linecap: round"/>
     </g>
     <g id="text_19">
      <!-- 0.6 -->
      <g style="fill: #262626" transform="translate(449.319858 182.533437) scale(0.1 -0.1)">
       <use xlink:href="#ArialMT-30"/>
       <use xlink:href="#ArialMT-2e" transform="translate(55.615234 0)"/>
       <use xlink:href="#ArialMT-36" transform="translate(83.398438 0)"/>
      </g>
     </g>
    </g>
    <g id="xtick_11">
     <g id="line2d_18">
      <path d="M 502.208949 168.375625 
L 502.208949 21.935625 
" clip-path="url(#pcc0af65922)" style="fill: none; stroke: #cccccc; stroke-width: 0.8; stroke-linecap: round"/>
     </g>
     <g id="text_20">
      <!-- 0.8 -->
      <g style="fill: #262626" transform="translate(495.258949 182.533437) scale(0.1 -0.1)">
       <use xlink:href="#ArialMT-30"/>
       <use xlink:href="#ArialMT-2e" transform="translate(55.615234 0)"/>
       <use xlink:href="#ArialMT-38" transform="translate(83.398438 0)"/>
      </g>
     </g>
    </g>
    <g id="xtick_12">
     <g id="line2d_19">
      <path d="M 548.14804 168.375625 
L 548.14804 21.935625 
" clip-path="url(#pcc0af65922)" style="fill: none; stroke: #cccccc; stroke-width: 0.8; stroke-linecap: round"/>
     </g>
     <g id="text_21">
      <!-- 1.0 -->
      <g style="fill: #262626" transform="translate(541.19804 182.533437) scale(0.1 -0.1)">
       <use xlink:href="#ArialMT-31"/>
       <use xlink:href="#ArialMT-2e" transform="translate(55.615234 0)"/>
       <use xlink:href="#ArialMT-30" transform="translate(83.398438 0)"/>
      </g>
     </g>
    </g>
    <g id="text_22">
     <!-- Normalized Time -->
     <g style="fill: #262626" transform="translate(392.040859 196.394531) scale(0.11 -0.11)">
      <use xlink:href="#ArialMT-4e"/>
      <use xlink:href="#ArialMT-6f" transform="translate(72.216797 0)"/>
      <use xlink:href="#ArialMT-72" transform="translate(127.832031 0)"/>
      <use xlink:href="#ArialMT-6d" transform="translate(161.132812 0)"/>
      <use xlink:href="#ArialMT-61" transform="translate(244.433594 0)"/>
      <use xlink:href="#ArialMT-6c" transform="translate(300.048828 0)"/>
      <use xlink:href="#ArialMT-69" transform="translate(322.265625 0)"/>
      <use xlink:href="#ArialMT-7a" transform="translate(344.482422 0)"/>
      <use xlink:href="#ArialMT-65" transform="translate(394.482422 0)"/>
      <use xlink:href="#ArialMT-64" transform="translate(450.097656 0)"/>
      <use xlink:href="#ArialMT-20" transform="translate(505.712891 0)"/>
      <use xlink:href="#ArialMT-54" transform="translate(531.746094 0)"/>
      <use xlink:href="#ArialMT-69" transform="translate(589.080078 0)"/>
      <use xlink:href="#ArialMT-6d" transform="translate(611.296875 0)"/>
      <use xlink:href="#ArialMT-65" transform="translate(694.597656 0)"/>
     </g>
    </g>
   </g>
   <g id="matplotlib.axis_4">
    <g id="ytick_7">
     <g id="line2d_20">
      <path d="M 306.967813 161.719261 
L 559.632813 161.719261 
" clip-path="url(#pcc0af65922)" style="fill: none; stroke: #cccccc; stroke-width: 0.8; stroke-linecap: round"/>
     </g>
    </g>
    <g id="ytick_8">
     <g id="line2d_21">
      <path d="M 306.967813 135.093807 
L 559.632813 135.093807 
" clip-path="url(#pcc0af65922)" style="fill: none; stroke: #cccccc; stroke-width: 0.8; stroke-linecap: round"/>
     </g>
    </g>
    <g id="ytick_9">
     <g id="line2d_22">
      <path d="M 306.967813 108.468352 
L 559.632813 108.468352 
" clip-path="url(#pcc0af65922)" style="fill: none; stroke: #cccccc; stroke-width: 0.8; stroke-linecap: round"/>
     </g>
    </g>
    <g id="ytick_10">
     <g id="line2d_23">
      <path d="M 306.967813 81.842898 
L 559.632813 81.842898 
" clip-path="url(#pcc0af65922)" style="fill: none; stroke: #cccccc; stroke-width: 0.8; stroke-linecap: round"/>
     </g>
    </g>
    <g id="ytick_11">
     <g id="line2d_24">
      <path d="M 306.967813 55.217443 
L 559.632813 55.217443 
" clip-path="url(#pcc0af65922)" style="fill: none; stroke: #cccccc; stroke-width: 0.8; stroke-linecap: round"/>
     </g>
    </g>
    <g id="ytick_12">
     <g id="line2d_25">
      <path d="M 306.967813 28.591989 
L 559.632813 28.591989 
" clip-path="url(#pcc0af65922)" style="fill: none; stroke: #cccccc; stroke-width: 0.8; stroke-linecap: round"/>
     </g>
    </g>
   </g>
   <g id="line2d_26">
    <path d="M 318.452585 28.591989 
L 322.595389 28.698814 
L 326.738193 29.018947 
L 330.880997 29.551361 
L 335.0238 30.294346 
L 339.166604 31.245518 
L 343.769719 32.54281 
L 348.372835 34.088197 
L 352.97595 35.875555 
L 357.579065 37.897804 
L 362.182181 40.146929 
L 367.245608 42.872347 
L 372.309034 45.848418 
L 377.832773 49.364114 
L 383.356511 53.14105 
L 389.340561 57.502508 
L 395.784923 62.480503 
L 402.689596 68.094517 
L 410.514892 74.745819 
L 420.181434 83.276119 
L 434.911403 96.622251 
L 450.561995 110.725157 
L 459.768226 118.729272 
L 467.593522 125.244122 
L 474.498195 130.708906 
L 480.942556 135.524449 
L 486.926606 139.716149 
L 492.450344 143.32123 
L 497.974083 146.651527 
L 503.03751 149.446652 
L 508.100936 151.981499 
L 512.704052 154.049793 
L 517.307167 155.884726 
L 521.910282 157.479029 
L 526.513398 158.826382 
L 531.116513 159.921449 
L 535.259317 160.687696 
L 539.402121 161.243603 
L 543.544924 161.587386 
L 547.687728 161.717942 
L 548.14804 161.719261 
L 548.14804 161.719261 
" clip-path="url(#pcc0af65922)" style="fill: none; stroke: #1f77b4; stroke-opacity: 0.3; stroke-width: 2; stroke-linecap: round"/>
   </g>
   <g id="patch_6">
    <path d="M 306.967813 168.375625 
L 306.967813 21.935625 
" style="fill: none; stroke: #cccccc; stroke-width: 0.8; stroke-linejoin: miter; stroke-linecap: square"/>
   </g>
   <g id="patch_7">
    <path d="M 306.967813 168.375625 
L 559.632813 168.375625 
" style="fill: none; stroke: #cccccc; stroke-width: 0.8; stroke-linejoin: miter; stroke-linecap: square"/>
   </g>
   <g id="text_23">
    <!-- Horizon-Free Sampling -->
    <g style="fill: #262626" transform="translate(371.61375 15.935625) scale(0.12 -0.12)">
     <defs>
      <path id="ArialMT-70" d="M 422 -1272 
L 422 3319 
L 934 3319 
L 934 2888 
Q 1116 3141 1344 3267 
Q 1572 3394 1897 3394 
Q 2322 3394 2647 3175 
Q 2972 2956 3137 2557 
Q 3303 2159 3303 1684 
Q 3303 1175 3120 767 
Q 2938 359 2589 142 
Q 2241 -75 1856 -75 
Q 1575 -75 1351 44 
Q 1128 163 984 344 
L 984 -1272 
L 422 -1272 
z
M 931 1641 
Q 931 1000 1190 694 
Q 1450 388 1819 388 
Q 2194 388 2461 705 
Q 2728 1022 2728 1688 
Q 2728 2322 2467 2637 
Q 2206 2953 1844 2953 
Q 1484 2953 1207 2617 
Q 931 2281 931 1641 
z
" transform="scale(0.015625)"/>
     </defs>
     <use xlink:href="#ArialMT-48"/>
     <use xlink:href="#ArialMT-6f" transform="translate(72.216797 0)"/>
     <use xlink:href="#ArialMT-72" transform="translate(127.832031 0)"/>
     <use xlink:href="#ArialMT-69" transform="translate(161.132812 0)"/>
     <use xlink:href="#ArialMT-7a" transform="translate(183.349609 0)"/>
     <use xlink:href="#ArialMT-6f" transform="translate(233.349609 0)"/>
     <use xlink:href="#ArialMT-6e" transform="translate(288.964844 0)"/>
     <use xlink:href="#ArialMT-2d" transform="translate(344.580078 0)"/>
     <use xlink:href="#ArialMT-46" transform="translate(377.880859 0)"/>
     <use xlink:href="#ArialMT-72" transform="translate(438.964844 0)"/>
     <use xlink:href="#ArialMT-65" transform="translate(472.265625 0)"/>
     <use xlink:href="#ArialMT-65" transform="translate(527.880859 0)"/>
     <use xlink:href="#ArialMT-20" transform="translate(583.496094 0)"/>
     <use xlink:href="#ArialMT-53" transform="translate(611.279297 0)"/>
     <use xlink:href="#ArialMT-61" transform="translate(677.978516 0)"/>
     <use xlink:href="#ArialMT-6d" transform="translate(733.59375 0)"/>
     <use xlink:href="#ArialMT-70" transform="translate(816.894531 0)"/>
     <use xlink:href="#ArialMT-6c" transform="translate(872.509766 0)"/>
     <use xlink:href="#ArialMT-69" transform="translate(894.726562 0)"/>
     <use xlink:href="#ArialMT-6e" transform="translate(916.943359 0)"/>
     <use xlink:href="#ArialMT-67" transform="translate(972.558594 0)"/>
    </g>
   </g>
   <g id="PathCollection_1">
    <defs>
     <path id="m22ab78fa83" d="M 0 3 
C 0.795609 3 1.55874 2.683901 2.12132 2.12132 
C 2.683901 1.55874 3 0.795609 3 0 
C 3 -0.795609 2.683901 -1.55874 2.12132 -2.12132 
C 1.55874 -2.683901 0.795609 -3 0 -3 
C -0.795609 -3 -1.55874 -2.683901 -2.12132 -2.12132 
C -2.683901 -1.55874 -3 -0.795609 -3 0 
C -3 0.795609 -2.683901 1.55874 -2.12132 2.12132 
C -1.55874 2.683901 -0.795609 3 0 3 
z
" style="stroke: #d62728"/>
    </defs>
    <g clip-path="url(#pcc0af65922)">
     <use xlink:href="#m22ab78fa83" x="318.452585" y="28.591989" style="fill: #d62728; stroke: #d62728"/>
     <use xlink:href="#m22ab78fa83" x="321.474371" y="28.64883" style="fill: #d62728; stroke: #d62728"/>
     <use xlink:href="#m22ab78fa83" x="326.363722" y="28.981263" style="fill: #d62728; stroke: #d62728"/>
     <use xlink:href="#m22ab78fa83" x="334.27486" y="30.144534" style="fill: #d62728; stroke: #d62728"/>
     <use xlink:href="#m22ab78fa83" x="339.164211" y="31.244909" style="fill: #d62728; stroke: #d62728"/>
     <use xlink:href="#m22ab78fa83" x="342.185997" y="32.068195" style="fill: #d62728; stroke: #d62728"/>
     <use xlink:href="#m22ab78fa83" x="347.075349" y="33.627824" style="fill: #d62728; stroke: #d62728"/>
     <use xlink:href="#m22ab78fa83" x="354.986486" y="36.730386" style="fill: #d62728; stroke: #d62728"/>
     <use xlink:href="#m22ab78fa83" x="359.875838" y="38.992204" style="fill: #d62728; stroke: #d62728"/>
     <use xlink:href="#m22ab78fa83" x="367.786975" y="43.178814" style="fill: #d62728; stroke: #d62728"/>
     <use xlink:href="#m22ab78fa83" x="372.676327" y="46.073671" style="fill: #d62728; stroke: #d62728"/>
     <use xlink:href="#m22ab78fa83" x="375.698112" y="47.973362" style="fill: #d62728; stroke: #d62728"/>
     <use xlink:href="#m22ab78fa83" x="380.587464" y="51.216331" style="fill: #d62728; stroke: #d62728"/>
     <use xlink:href="#m22ab78fa83" x="388.498601" y="56.872919" style="fill: #d62728; stroke: #d62728"/>
     <use xlink:href="#m22ab78fa83" x="393.387953" y="60.597205" style="fill: #d62728; stroke: #d62728"/>
     <use xlink:href="#m22ab78fa83" x="401.29909" y="66.942894" style="fill: #d62728; stroke: #d62728"/>
     <use xlink:href="#m22ab78fa83" x="409.210227" y="73.618569" style="fill: #d62728; stroke: #d62728"/>
     <use xlink:href="#m22ab78fa83" x="414.099579" y="77.875418" style="fill: #d62728; stroke: #d62728"/>
     <use xlink:href="#m22ab78fa83" x="422.010716" y="84.918317" style="fill: #d62728; stroke: #d62728"/>
     <use xlink:href="#m22ab78fa83" x="426.900068" y="89.336251" style="fill: #d62728; stroke: #d62728"/>
     <use xlink:href="#m22ab78fa83" x="429.921854" y="92.080954" style="fill: #d62728; stroke: #d62728"/>
     <use xlink:href="#m22ab78fa83" x="434.811205" y="96.531051" style="fill: #d62728; stroke: #d62728"/>
     <use xlink:href="#m22ab78fa83" x="442.722343" y="103.709764" style="fill: #d62728; stroke: #d62728"/>
     <use xlink:href="#m22ab78fa83" x="447.611694" y="108.101734" style="fill: #d62728; stroke: #d62728"/>
     <use xlink:href="#m22ab78fa83" x="455.522831" y="115.077047" style="fill: #d62728; stroke: #d62728"/>
     <use xlink:href="#m22ab78fa83" x="460.412183" y="119.276615" style="fill: #d62728; stroke: #d62728"/>
     <use xlink:href="#m22ab78fa83" x="463.433969" y="121.819353" style="fill: #d62728; stroke: #d62728"/>
     <use xlink:href="#m22ab78fa83" x="468.32332" y="125.835273" style="fill: #d62728; stroke: #d62728"/>
     <use xlink:href="#m22ab78fa83" x="476.234458" y="132.035091" style="fill: #d62728; stroke: #d62728"/>
     <use xlink:href="#m22ab78fa83" x="481.123809" y="135.655528" style="fill: #d62728; stroke: #d62728"/>
     <use xlink:href="#m22ab78fa83" x="489.034947" y="141.123312" style="fill: #d62728; stroke: #d62728"/>
     <use xlink:href="#m22ab78fa83" x="496.946084" y="146.053443" style="fill: #d62728; stroke: #d62728"/>
     <use xlink:href="#m22ab78fa83" x="501.835436" y="148.806161" style="fill: #d62728; stroke: #d62728"/>
     <use xlink:href="#m22ab78fa83" x="509.746573" y="152.747229" style="fill: #d62728; stroke: #d62728"/>
     <use xlink:href="#m22ab78fa83" x="514.635925" y="154.848751" style="fill: #d62728; stroke: #d62728"/>
     <use xlink:href="#m22ab78fa83" x="517.65771" y="156.014688" style="fill: #d62728; stroke: #d62728"/>
     <use xlink:href="#m22ab78fa83" x="522.547062" y="157.680266" style="fill: #d62728; stroke: #d62728"/>
     <use xlink:href="#m22ab78fa83" x="530.458199" y="159.780474" style="fill: #d62728; stroke: #d62728"/>
     <use xlink:href="#m22ab78fa83" x="535.347551" y="160.701735" style="fill: #d62728; stroke: #d62728"/>
     <use xlink:href="#m22ab78fa83" x="543.258688" y="161.570482" style="fill: #d62728; stroke: #d62728"/>
    </g>
   </g>
   <g id="legend_1">
    <g id="line2d_27">
     <path d="M 444.788594 33.327656 
L 453.788594 33.327656 
L 462.788594 33.327656 
" style="fill: none; stroke: #1f77b4; stroke-opacity: 0.3; stroke-width: 2; stroke-linecap: round"/>
    </g>
    <g id="text_24">
     <!-- Underlying schedule -->
     <g style="fill: #262626" transform="translate(469.988594 36.477656) scale(0.09 -0.09)">
      <defs>
       <path id="ArialMT-55" d="M 3500 4581 
L 4106 4581 
L 4106 1934 
Q 4106 1244 3950 837 
Q 3794 431 3386 176 
Q 2978 -78 2316 -78 
Q 1672 -78 1262 144 
Q 853 366 678 786 
Q 503 1206 503 1934 
L 503 4581 
L 1109 4581 
L 1109 1938 
Q 1109 1341 1220 1058 
Q 1331 775 1601 622 
Q 1872 469 2263 469 
Q 2931 469 3215 772 
Q 3500 1075 3500 1938 
L 3500 4581 
z
" transform="scale(0.015625)"/>
       <path id="ArialMT-79" d="M 397 -1278 
L 334 -750 
Q 519 -800 656 -800 
Q 844 -800 956 -737 
Q 1069 -675 1141 -563 
Q 1194 -478 1313 -144 
Q 1328 -97 1363 -6 
L 103 3319 
L 709 3319 
L 1400 1397 
Q 1534 1031 1641 628 
Q 1738 1016 1872 1384 
L 2581 3319 
L 3144 3319 
L 1881 -56 
Q 1678 -603 1566 -809 
Q 1416 -1088 1222 -1217 
Q 1028 -1347 759 -1347 
Q 597 -1347 397 -1278 
z
" transform="scale(0.015625)"/>
      </defs>
      <use xlink:href="#ArialMT-55"/>
      <use xlink:href="#ArialMT-6e" transform="translate(72.216797 0)"/>
      <use xlink:href="#ArialMT-64" transform="translate(127.832031 0)"/>
      <use xlink:href="#ArialMT-65" transform="translate(183.447266 0)"/>
      <use xlink:href="#ArialMT-72" transform="translate(239.0625 0)"/>
      <use xlink:href="#ArialMT-6c" transform="translate(272.363281 0)"/>
      <use xlink:href="#ArialMT-79" transform="translate(294.580078 0)"/>
      <use xlink:href="#ArialMT-69" transform="translate(344.580078 0)"/>
      <use xlink:href="#ArialMT-6e" transform="translate(366.796875 0)"/>
      <use xlink:href="#ArialMT-67" transform="translate(422.412109 0)"/>
      <use xlink:href="#ArialMT-20" transform="translate(478.027344 0)"/>
      <use xlink:href="#ArialMT-73" transform="translate(505.810547 0)"/>
      <use xlink:href="#ArialMT-63" transform="translate(555.810547 0)"/>
      <use xlink:href="#ArialMT-68" transform="translate(605.810547 0)"/>
      <use xlink:href="#ArialMT-65" transform="translate(661.425781 0)"/>
      <use xlink:href="#ArialMT-64" transform="translate(717.041016 0)"/>
      <use xlink:href="#ArialMT-75" transform="translate(772.65625 0)"/>
      <use xlink:href="#ArialMT-6c" transform="translate(828.271484 0)"/>
      <use xlink:href="#ArialMT-65" transform="translate(850.488281 0)"/>
     </g>
    </g>
    <g id="PathCollection_2">
     <g>
      <use xlink:href="#m22ab78fa83" x="453.788594" y="46.951406" style="fill: #d62728; stroke: #d62728"/>
     </g>
    </g>
    <g id="text_25">
     <!-- Kronecker samples -->
     <g style="fill: #262626" transform="translate(469.988594 49.313906) scale(0.09 -0.09)">
      <defs>
       <path id="ArialMT-4b" d="M 469 0 
L 469 4581 
L 1075 4581 
L 1075 2309 
L 3350 4581 
L 4172 4581 
L 2250 2725 
L 4256 0 
L 3456 0 
L 1825 2319 
L 1075 1588 
L 1075 0 
L 469 0 
z
" transform="scale(0.015625)"/>
       <path id="ArialMT-6b" d="M 425 0 
L 425 4581 
L 988 4581 
L 988 1969 
L 2319 3319 
L 3047 3319 
L 1778 2088 
L 3175 0 
L 2481 0 
L 1384 1697 
L 988 1316 
L 988 0 
L 425 0 
z
" transform="scale(0.015625)"/>
      </defs>
      <use xlink:href="#ArialMT-4b"/>
      <use xlink:href="#ArialMT-72" transform="translate(66.699219 0)"/>
      <use xlink:href="#ArialMT-6f" transform="translate(100 0)"/>
      <use xlink:href="#ArialMT-6e" transform="translate(155.615234 0)"/>
      <use xlink:href="#ArialMT-65" transform="translate(211.230469 0)"/>
      <use xlink:href="#ArialMT-63" transform="translate(266.845703 0)"/>
      <use xlink:href="#ArialMT-6b" transform="translate(316.845703 0)"/>
      <use xlink:href="#ArialMT-65" transform="translate(366.845703 0)"/>
      <use xlink:href="#ArialMT-72" transform="translate(422.460938 0)"/>
      <use xlink:href="#ArialMT-20" transform="translate(455.761719 0)"/>
      <use xlink:href="#ArialMT-73" transform="translate(483.544922 0)"/>
      <use xlink:href="#ArialMT-61" transform="translate(533.544922 0)"/>
      <use xlink:href="#ArialMT-6d" transform="translate(589.160156 0)"/>
      <use xlink:href="#ArialMT-70" transform="translate(672.460938 0)"/>
      <use xlink:href="#ArialMT-6c" transform="translate(728.076172 0)"/>
      <use xlink:href="#ArialMT-65" transform="translate(750.292969 0)"/>
      <use xlink:href="#ArialMT-73" transform="translate(805.908203 0)"/>
     </g>
    </g>
   </g>
  </g>
 </g>
 <defs>
  <clipPath id="p2b423231e3">
   <rect x="42.422812" y="21.935625" width="252.665" height="146.44"/>
  </clipPath>
  <clipPath id="pcc0af65922">
   <rect x="306.967813" y="21.935625" width="252.665" height="146.44"/>
  </clipPath>
 </defs>
</svg>
